<?xml version="1.0" encoding="utf-8"?>
<!-- Designed by Vexels.com - 2016 All Rights Reserved - https://vexels.com/terms-and-conditions/  -->

<svg version="1.0" id="Capa_1" xmlns="http://www.w3.org/2000/svg" xmlns:xlink="http://www.w3.org/1999/xlink" x="0px" y="0px"
	 width="1200px" height="1200px" viewBox="0 0 1200 1200" enable-background="new 0 0 1200 1200" xml:space="preserve">
<g>
	<g>
		<g>
			<path fill="#415667" d="M974.675,173.894h-44.117v11.984c0,33.562-27.223,60.751-60.717,60.751
				c-33.511,0-60.701-27.19-60.701-60.751v-11.984h-48.041v11.984c0,33.562-27.139,60.751-60.65,60.751
				c-33.592,0-60.748-27.19-60.748-60.751v-11.984h-48.057v11.984c0,33.562-27.109,60.751-60.667,60.751
				c-33.511,0-60.717-27.19-60.717-60.751v-11.984h-48.057v11.984c0,33.562-27.19,60.751-60.684,60.751
				c-33.511,0-60.667-27.19-60.667-60.751v-11.984h-75.509c-62.439,0-113.076,71.373-113.076,159.311V952.5
				c0,88.035,50.637,159.311,113.076,159.311h749.333c62.473,0,113.059-71.276,113.059-159.311V333.204
				C1087.733,245.267,1037.147,173.894,974.675,173.894z M969.207,865.367c0,61.504-15.532,108.576-84.837,111.135H322.738
				c-73.162,2.562-84.82-49.631-84.82-111.135V433.209c0-61.471,13.383-115.194,84.82-111.287H884.37
				c72.833-3.907,84.837,49.816,84.837,111.287V865.367z"/>
			<path fill="#415667" d="M871.055,219.849c19.604,0,35.613-15.959,35.613-35.677v-60.341c0-19.651-16.009-35.643-35.613-35.643
				c-19.701,0-35.693,15.992-35.693,35.643v60.341C835.361,203.891,851.353,219.849,871.055,219.849z"/>
			<path fill="#415667" d="M701.219,219.849c19.637,0,35.63-15.959,35.63-35.677v-60.341c0-19.651-15.992-35.643-35.63-35.643
				c-19.667,0-35.643,15.992-35.643,35.643v60.341C665.576,203.891,681.552,219.849,701.219,219.849z"/>
			<path fill="#415667" d="M534.178,219.849c19.684,0,35.66-15.959,35.66-35.677v-60.341c0-19.651-15.975-35.643-35.66-35.643
				c-19.721,0-35.727,15.992-35.727,35.643v60.341C498.451,203.891,514.457,219.849,534.178,219.849z"/>
			<path fill="#415667" d="M358.795,222.708c19.651,0,35.626-15.992,35.626-35.714V126.69c0-19.785-15.975-35.794-35.626-35.794
				c-19.688,0-35.646,16.009-35.646,35.794v60.304C323.148,206.715,339.107,222.708,358.795,222.708z"/>
		</g>
	</g>
	<g>
		<path fill="#302E36" d="M567.884,555.152c0,18.255-3.315,36.712-9.933,55.364c-6.634,18.618-15.071,36.907-25.253,54.82
			c-10.246,17.929-21.524,35.236-33.905,51.867c-12.347,16.682-24.429,32.001-36.268,45.99l-28.501,22.018v2.707l38.73-7.552
			h103.193v59.174H349.615v-36.023c8.635-8.965,18.306-19.472,29.046-31.473c10.753-11.987,21.591-24.711,32.526-38.158
			c10.935-13.447,21.574-27.321,31.981-41.638c10.377-14.365,19.688-28.797,27.963-43.313c8.242-14.496,14.792-28.568,19.62-42.193
			c4.842-13.612,7.273-26.517,7.273-38.716c0-14.647-4.237-26.796-12.643-36.268c-8.423-9.492-21.772-14.254-40.045-14.254
			c-11.493,0-23.215,2.414-35.236,7.243c-12.018,4.842-22.132,11.016-30.34,18.568l-27.993-49.47
			c14.005-11.476,29.832-20.686,47.58-27.68c17.747-6.994,38.615-10.491,62.671-10.491c15.384,0,29.537,2.165,42.442,6.47
			c12.889,4.284,24.005,10.572,33.313,18.797c9.311,8.245,16.682,18.555,22.068,30.902
			C565.208,524.233,567.884,538.666,567.884,555.152z"/>
		<path fill="#302E36" d="M595.83,650.823c0-65.936,11.295-114.932,33.888-146.997c22.576-32.082,54.984-48.155,97.278-48.155
			c45.169,0,78.32,15.891,99.481,47.58c21.134,31.739,31.689,80.93,31.689,147.572c0,66.316-11.379,115.604-34.1,147.868
			c-22.775,32.243-55.331,48.35-97.578,48.35c-44.856,0-77.792-16.927-98.923-50.781C606.385,762.372,595.83,713.935,595.83,650.823
			z M665.724,650.823c0,43.723,4.728,77.497,14.25,101.354c9.472,23.854,25.155,35.74,47.022,35.74
			c21.181,0,36.665-10.918,46.514-32.802c9.852-21.84,14.812-56.629,14.812-104.293c0-43.377-4.697-76.888-14.005-100.516
			c-9.328-23.659-25.269-35.478-47.829-35.478c-21.524,0-37.042,11.113-46.514,33.33
			C670.452,570.371,665.724,604.605,665.724,650.823z"/>
	</g>
</g>
</svg>
