<svg width="24" height="26" viewBox="0 0 24 26" fill="none" xmlns="http://www.w3.org/2000/svg">
<path d="M20.3298 0.218751C20.3765 0.234163 20.3765 0.234163 20.4242 0.249886C21.1094 0.481055 21.6925 0.83207 22.2358 1.35647C22.274 1.3914 22.3121 1.42633 22.3513 1.46232C23.0854 2.15712 23.5454 3.0804 23.8165 4.09732C23.8324 4.15585 23.8482 4.21438 23.8646 4.27469C24.0767 5.22509 24.0354 6.32037 23.77 7.2519C23.7537 7.31023 23.7374 7.36856 23.7206 7.42865C23.6196 7.74883 23.4859 8.04718 23.34 8.34436C23.3167 8.39252 23.3167 8.39252 23.2929 8.44165C22.9766 9.06128 22.5017 9.55734 22.0526 10.0565C21.988 10.1287 21.9234 10.2009 21.8588 10.2731C21.6847 10.4677 21.5103 10.6619 21.3358 10.8561C21.2265 10.9778 21.1173 11.0995 21.0081 11.2212C20.6263 11.6469 20.2443 12.0722 19.862 12.4974C19.507 12.8923 19.1525 13.2877 18.7982 13.6835C18.4928 14.0245 18.1871 14.3651 17.8811 14.7054C17.6989 14.9081 17.5168 15.111 17.335 15.3142C17.164 15.5055 16.9926 15.6962 16.8208 15.8865C16.7582 15.956 16.6958 16.0257 16.6336 16.0956C16.2632 16.511 15.8939 16.8678 15.4484 17.181C15.4003 17.2152 15.4003 17.2152 15.3513 17.2501C14.2569 17.9995 12.9273 18.1513 11.6851 17.8644C10.7455 17.6121 9.69881 17.0463 9.12582 16.1468C8.96403 15.778 8.96916 15.4473 9.07933 15.0608C9.20375 14.7733 9.38856 14.6345 9.63721 14.4919C9.92115 14.3866 10.2419 14.4015 10.5183 14.5313C10.6826 14.6419 10.8138 14.7937 10.9533 14.9393C11.5075 15.4772 12.2266 15.7046 12.9523 15.6955C13.6231 15.6402 14.284 15.3726 14.7781 14.8581C14.8018 14.8335 14.8256 14.8088 14.85 14.7834C15.1392 14.4812 15.4204 14.1699 15.7015 13.8583C15.7619 13.7916 15.8223 13.7248 15.8827 13.6581C16.0788 13.4413 16.2746 13.2242 16.4704 13.0071C16.5383 12.9319 16.6063 12.8566 16.6742 12.7813C16.9567 12.4681 17.2392 12.1548 17.5215 11.8414C17.924 11.3946 18.3268 10.9482 18.7301 10.5025C19.0151 10.1875 19.2996 9.87199 19.5838 9.55614C19.753 9.36813 19.9224 9.18034 20.0922 8.99308C20.2519 8.81698 20.4111 8.64026 20.5698 8.46307C20.6278 8.39858 20.6859 8.33431 20.7443 8.27028C21.1939 7.77689 21.5801 7.26824 21.768 6.58284C21.7857 6.52051 21.8034 6.45818 21.8216 6.39396C22.0085 5.61498 21.9188 4.76346 21.585 4.04561C21.4849 3.86549 21.3755 3.69631 21.2596 3.52847C21.2376 3.4954 21.2156 3.46234 21.1929 3.42827C20.7685 2.82916 20.0849 2.50382 19.429 2.3552C18.6375 2.27929 17.8129 2.44865 17.1818 3.02268C16.8122 3.40577 16.4547 3.80118 16.0998 4.20098C15.9944 4.31966 15.8887 4.4381 15.783 4.55646C15.4829 4.89252 15.1829 5.22873 14.8836 5.56576C14.6995 5.77308 14.5149 5.97989 14.3301 6.18638C14.2601 6.26468 14.1904 6.34317 14.1208 6.42186C14.0236 6.53172 13.9258 6.64092 13.8279 6.74999C13.7997 6.7822 13.7715 6.81442 13.7424 6.8476C13.4746 7.14342 13.184 7.34028 12.7985 7.35532C12.5082 7.32309 12.2583 7.23277 12.0547 6.99332C11.8636 6.69522 11.7964 6.41711 11.7959 6.05398C11.8718 5.63101 12.102 5.35899 12.3682 5.06558C12.4223 5.00469 12.4223 5.00469 12.4775 4.94258C12.5964 4.80911 12.716 4.67641 12.8357 4.54376C12.9193 4.45054 13.0028 4.3573 13.0863 4.26403C13.2614 4.06869 13.4369 3.87373 13.6126 3.67904C13.8142 3.45566 14.015 3.23146 14.2155 3.00681C14.4098 2.78908 14.6048 2.5721 14.8 2.35539C14.8823 2.26393 14.9644 2.17227 15.0463 2.08041C16.4436 0.514991 18.3113 -0.458938 20.3298 0.218751Z" fill="#215DCE"/>
<path d="M13.417 10.2763C13.4426 10.3002 13.4683 10.3241 13.4948 10.3488C13.5308 10.3822 13.5308 10.3822 13.5676 10.4163C13.795 10.636 13.9682 10.8745 13.9978 11.2176C14.0082 11.5998 13.9896 11.8937 13.7598 12.1903C13.4516 12.4707 13.1582 12.5362 12.7672 12.4945C12.4941 12.4083 12.3096 12.1991 12.1051 11.9884C11.5808 11.4772 10.8657 11.2548 10.1813 11.2636C9.52793 11.318 8.88698 11.5819 8.4061 12.0882C8.38298 12.1124 8.35987 12.1367 8.33606 12.1617C8.07354 12.4388 7.81779 12.7236 7.56266 13.0093C7.50939 13.0687 7.4561 13.1282 7.40281 13.1877C7.23007 13.3805 7.05756 13.5736 6.88508 13.7667C6.8252 13.8337 6.76531 13.9008 6.70542 13.9678C6.45626 14.2467 6.20716 14.5258 5.95823 14.805C5.60369 15.2026 5.24877 15.5998 4.89332 15.9964C4.64202 16.2769 4.39117 16.5578 4.14063 16.8391C3.99155 17.0065 3.8423 17.1736 3.69257 17.3403C3.55177 17.497 3.41153 17.6543 3.27168 17.8121C3.22066 17.8694 3.16945 17.9266 3.11802 17.9835C2.48039 18.6896 2.04199 19.5131 2.01402 20.5452C2.02729 21.3188 2.24754 21.9777 2.65983 22.5863C2.71008 22.6648 2.71008 22.6648 2.76135 22.7448C3.31405 23.3942 4.0552 23.7327 4.84543 23.7686C5.5358 23.7589 6.24061 23.4777 6.74668 22.9467C6.76967 22.9226 6.79266 22.8985 6.81635 22.8736C7.07287 22.6026 7.32052 22.3215 7.56755 22.0395C7.65169 21.9436 7.73603 21.8479 7.82045 21.7523C8.06001 21.4809 8.29942 21.2094 8.53812 20.937C8.68522 20.7693 8.83276 20.602 8.9806 20.435C9.03639 20.3718 9.09201 20.3084 9.14746 20.2448C9.22493 20.156 9.30295 20.0679 9.38112 19.9799C9.40344 19.954 9.42576 19.9281 9.44876 19.9014C9.65335 19.6734 9.881 19.5147 10.1688 19.4677C10.5119 19.4747 10.7213 19.5038 10.9905 19.7559C11.2202 20.0617 11.2978 20.3141 11.3021 20.7147C11.24 21.0963 11.0401 21.3623 10.8007 21.6278C10.7712 21.6613 10.7418 21.6947 10.7114 21.7292C10.6146 21.8389 10.5171 21.9479 10.4196 22.0568C10.3514 22.1336 10.2833 22.2104 10.2152 22.2872C10.0724 22.4479 9.92936 22.6082 9.78606 22.7683C9.60371 22.9721 9.42217 23.1768 9.24087 23.3818C9.10025 23.5406 8.95919 23.6989 8.818 23.857C8.75098 23.9322 8.68408 24.0076 8.61732 24.0831C8.23495 24.515 7.85919 24.9007 7.39764 25.2234C7.34974 25.2571 7.34974 25.2571 7.30086 25.2915C6.55654 25.7949 5.74619 26.0046 4.88209 25.9999C4.82617 25.9996 4.77026 25.9994 4.71265 25.9991C4.31202 25.9931 3.94775 25.9627 3.56227 25.8319C3.51692 25.8168 3.51692 25.8168 3.47066 25.8014C2.80558 25.5747 2.23967 25.2305 1.71227 24.7163C1.65678 24.6649 1.65678 24.6649 1.60017 24.6125C0.887738 23.9311 0.441232 23.0257 0.178118 22.0285C0.162704 21.9711 0.14729 21.9137 0.131409 21.8546C-0.0744665 20.9226 -0.0343928 19.8485 0.22324 18.935C0.239061 18.8778 0.254882 18.8206 0.271182 18.7617C0.369179 18.4477 0.499016 18.1551 0.640619 17.8637C0.655694 17.8322 0.67077 17.8008 0.686302 17.7683C0.981851 17.1834 1.42065 16.712 1.84045 16.2406C1.89781 16.1758 1.95515 16.111 2.01248 16.0462C2.16694 15.8717 2.32168 15.6976 2.47651 15.5235C2.57351 15.4144 2.67046 15.3052 2.76738 15.196C3.10633 14.8142 3.44551 14.4325 3.78491 14.0512C4.09999 13.6971 4.41457 13.3425 4.72891 12.9876C4.99999 12.6816 5.27141 12.376 5.54311 12.0707C5.70486 11.8889 5.86647 11.707 6.02773 11.5247C6.17948 11.3532 6.33166 11.1821 6.48418 11.0115C6.53968 10.9492 6.59503 10.8867 6.65021 10.8241C6.99536 10.4326 7.34425 10.1035 7.75862 9.80676C7.78977 9.78436 7.82092 9.76195 7.85301 9.73887C9.59398 8.53614 11.8697 8.86283 13.417 10.2763Z" fill="#215DCE"/>
</svg>
