<?xml version="1.0" encoding="UTF-8"?>
<svg version="1.1" xmlns="http://www.w3.org/2000/svg" width="512" height="512">
<path d="M0 0 C168.96 0 337.92 0 512 0 C512 168.96 512 337.92 512 512 C343.04 512 174.08 512 0 512 C0 343.04 0 174.08 0 0 Z " fill="#FEFEFE" transform="translate(0,0)"/>
<path d="M0 0 C-0.56154514 5.03830776 -2.22570365 9.15055737 -4.5 13.625 C-4.85529785 14.3264917 -5.2105957 15.0279834 -5.57666016 15.75073242 C-9.04006326 22.38803986 -13.20495421 28.24915782 -18 34 C-18.75925781 34.92296875 -19.51851563 35.8459375 -20.30078125 36.796875 C-31.66653044 49.96700663 -45.26969366 58.81125988 -61 66 C-61.66821777 66.30808594 -62.33643555 66.61617188 -63.02490234 66.93359375 C-75.29135007 72.33693129 -88.60968593 73.61312889 -101.79467773 75.17700195 C-134.3049818 79.10172581 -161.26610612 93.33903309 -182.36914062 118.64160156 C-194.34361162 133.94440977 -202.14738566 152.36792485 -204.11791992 171.69067383 C-204.20171245 172.50629445 -204.28550497 173.32191507 -204.37183666 174.16225147 C-205.20465508 183.01862575 -205.26581685 191.85400732 -205.24382973 200.74304771 C-205.2381075 203.72733479 -205.24759804 206.71125136 -205.2610321 209.69551086 C-205.29764768 218.16462196 -205.31670916 226.63359455 -205.30541992 235.1027832 C-205.29952089 240.32502724 -205.31804163 245.54673488 -205.35130882 250.7688694 C-205.35917206 252.73451041 -205.3581117 254.70021132 -205.34728432 256.66583824 C-205.24321628 276.38473138 -208.95317142 293.01931476 -222.8125 307.90234375 C-234.756445 319.35573387 -249.8560424 324.42474283 -266.13745117 324.29321289 C-280.82062388 323.97971988 -294.1502772 318.5629497 -304.87109375 308.35546875 C-314.16672743 298.07057497 -321.12523346 285.97050097 -321.12457275 271.78300476 C-321.12841728 270.23762527 -321.12841728 270.23762527 -321.13233948 268.661026 C-321.13023972 267.5414299 -321.12813995 266.4218338 -321.12597656 265.26831055 C-321.1278447 264.08074158 -321.12971283 262.89317261 -321.13163757 261.6696167 C-321.13563909 259.09200444 -321.13771618 256.51438864 -321.13809967 253.9367733 C-321.13924371 249.85533521 -321.15210908 245.77398682 -321.16766357 241.69258118 C-321.17023643 241.00255168 -321.17280928 240.31252219 -321.1754601 239.60158271 C-321.18072633 238.19087149 -321.18601181 236.78016034 -321.19131613 235.36944926 C-321.22636948 225.87299427 -321.25297893 216.3766521 -321.25048828 206.88012695 C-321.24889671 200.46675253 -321.26500242 194.05368566 -321.30119491 187.64040977 C-321.31960384 184.25081932 -321.32904263 180.86174208 -321.31671906 177.47211266 C-321.30709857 173.6875546 -321.32828025 169.90431233 -321.35644531 166.11987305 C-321.34624863 165.00634964 -321.33605194 163.89282623 -321.32554626 162.74555969 C-321.41679641 155.89824699 -322.49790735 151.27519822 -327 146 C-331.94546348 141.4989115 -336.4917208 141.3557471 -342.875 141.25 C-343.75414062 141.22035156 -344.63328125 141.19070312 -345.5390625 141.16015625 C-347.69222545 141.08994441 -349.84611485 141.04265119 -352 141 C-352 140.01 -352 139.02 -352 138 C-337.48 137.67 -322.96 137.34 -308 137 C-306.02 131.555 -306.02 131.555 -304 126 C-300.13436688 120.46511621 -296.39927082 117.22539814 -290 115 C-286.3904687 114.50488114 -282.82660156 114.49625093 -279.1875 114.5 C-268.08147552 114.24625308 -259.20086395 113.00560528 -251 105 C-250.5153125 104.52820313 -250.030625 104.05640625 -249.53125 103.5703125 C-248.33773417 102.3966886 -247.16633538 101.20063936 -246 100 C-245.47267153 108.17359132 -246.54634825 114.84999077 -251.91796875 121.3046875 C-258.84038484 127.99431438 -265.94511704 130.21997719 -275.5234375 130.1171875 C-278.98310632 130.01788587 -282.43739521 129.8720222 -285.89453125 129.70703125 C-292.39097345 129.30419414 -292.39097345 129.30419414 -297.7890625 132.3828125 C-299.13997233 134.82189509 -299.13997233 134.82189509 -299 137 C-298.00419922 137.43699219 -298.00419922 137.43699219 -296.98828125 137.8828125 C-290.36172959 140.95908028 -286.05887353 143.57457829 -282.89072227 150.38432407 C-281.98086474 153.0561922 -281.74959172 155.04146448 -281.7484436 157.85081482 C-281.74306076 158.79981659 -281.73767792 159.74881836 -281.73213196 160.72657776 C-281.73625595 161.75580856 -281.74037994 162.78503937 -281.74462891 163.84545898 C-281.74100845 164.93870483 -281.737388 166.03195068 -281.73365784 167.1583252 C-281.72676991 169.52967431 -281.72425727 171.90103926 -281.72560501 174.27239799 C-281.72657011 178.02570704 -281.71362999 181.77872962 -281.69662476 185.53199768 C-281.65034391 196.20238994 -281.62565856 206.87273024 -281.61914062 217.54321289 C-281.61498443 224.07187702 -281.58989903 230.60029715 -281.55381393 237.12886238 C-281.54400865 239.61632553 -281.54168792 242.10382985 -281.54698563 244.59130669 C-281.55404678 248.06957966 -281.53679253 251.54695806 -281.51416016 255.02514648 C-281.52233261 256.05235306 -281.53050507 257.07955963 -281.53892517 258.13789368 C-281.47174532 263.939053 -280.96050168 267.44207629 -277 272 C-273.16635339 275.31087662 -270.17280898 276.68435866 -265.01953125 276.37890625 C-261.5004087 275.71864535 -258.60367013 274.47348662 -256 272 C-252.21301274 266.46180557 -251.42298812 262.54126004 -251.50170898 255.90966797 C-251.49619019 255.0255423 -251.49067139 254.14141663 -251.48498535 253.23049927 C-251.47569268 251.31813648 -251.47553751 249.40571181 -251.48357964 247.49334335 C-251.4962886 244.44545864 -251.4848409 241.39846962 -251.46754456 238.35061646 C-251.43542107 231.85870317 -251.43581571 225.36697721 -251.4375 218.875 C-251.43498286 211.3915329 -251.4186255 203.90833663 -251.38105965 196.42496109 C-251.37139724 193.4603064 -251.37985345 190.49610742 -251.38975525 187.53146362 C-251.37059979 171.31259078 -250.0676587 154.90642779 -245.3125 139.3125 C-245.05758789 138.45567627 -244.80267578 137.59885254 -244.54003906 136.71606445 C-232.57692115 97.99315262 -204.7670539 66.21685211 -169.24023438 47.14941406 C-157.27509505 41.01036917 -145.11872294 36.81434578 -132 34 C-131.16339844 33.78730469 -130.32679688 33.57460937 -129.46484375 33.35546875 C-121.16425293 31.2614903 -112.63864527 31.06519263 -104.12109375 30.82421875 C-66.42807359 29.72592408 -35.63568253 21.11150765 -3.6796875 0.92578125 C-2 0 -2 0 0 0 Z " fill="#D60111" transform="translate(430,66)"/>
<path d="M0 0 C0.33 0 0.66 0 1 0 C-0.48616564 21.92094324 -11.80906471 40.66626023 -28 55 C-39.98010587 64.12941802 -55.04840411 70.38190881 -70.125 71.4375 C-88.12087058 72.74344126 -106.74755995 78.04583217 -119 92 C-130.42087939 105.35506057 -133.12623492 120.53143008 -133.17358398 137.56176758 C-133.1836145 139.08564339 -133.1836145 139.08564339 -133.19384766 140.64030457 C-133.20782313 142.83204297 -133.21974054 145.02379529 -133.22979546 147.21555519 C-133.24632667 150.69353434 -133.26956858 154.17141067 -133.29469299 157.64933777 C-133.36513637 167.53318073 -133.42548487 177.41706488 -133.47680664 187.30102539 C-133.50874136 193.36096583 -133.55004825 199.42078529 -133.59700203 205.48062706 C-133.61292933 207.7789154 -133.62529319 210.07723148 -133.63390923 212.37555885 C-133.73574141 239.14939734 -137.56937776 262.20553041 -156 283 C-156.52980469 283.61230469 -157.05960938 284.22460938 -157.60546875 284.85546875 C-171.62414916 299.98179798 -193.33749403 309.24896462 -213.7265625 310.16796875 C-239.29223146 310.29605326 -260.07353923 302.47657197 -278.625 284.6875 C-283.33785812 279.88223289 -287.19950063 274.5402375 -291 269 C-287.85961868 269 -286.92724316 269.38964915 -284.26953125 270.86328125 C-283.18768555 271.45206055 -283.18768555 271.45206055 -282.08398438 272.05273438 C-280.95959961 272.67631836 -280.95959961 272.67631836 -279.8125 273.3125 C-263.23282104 282.48766214 -245.63532882 285.9896574 -227 281 C-208.91497093 275.75922148 -193.44347355 265.82432713 -183.97460938 249.19970703 C-175.911202 234.11859057 -174.56845776 220.1127683 -174.61987495 203.28569984 C-174.62909817 199.98203583 -174.61863316 196.67892598 -174.60325623 193.37528992 C-174.56347396 183.99116742 -174.56194294 174.60709332 -174.56420898 165.22290039 C-174.56426053 159.45652422 -174.54487488 153.69044792 -174.51487541 147.92415428 C-174.50419916 144.70169276 -174.5160914 141.47984111 -174.52870178 138.25740051 C-174.47996354 109.79379787 -166.2425873 84.81219149 -146.6640625 63.65625 C-125.39544514 42.48748531 -100.91049487 35.66674945 -71.9375 32.5625 C-43.99299445 29.4951758 -20.16997539 20.16997539 0 0 Z " fill="#D60212" transform="translate(411,119)"/>
<path d="M0 0 C9.23218368 8.53301658 17.07943515 21.90724438 17.828125 34.6484375 C17.85148197 36.21467014 17.85232229 37.78138089 17.83203125 39.34765625 C17.82067139 40.58878174 17.82067139 40.58878174 17.80908203 41.85498047 C17.52550903 52.4713742 14.38165457 61.8974088 7.39453125 70.03515625 C0.94137194 75.97847228 -5.84417896 77.59543251 -14.51171875 77.40234375 C-23.02731222 76.39165463 -28.74915262 71.71185022 -34.04296875 65.22265625 C-38.15572276 59.46480063 -37.8476881 53.8442114 -37.60546875 47.03515625 C-37.08984375 47.69515625 -36.57421875 48.35515625 -36.04296875 49.03515625 C-33.66458959 51.35055729 -33.66458959 51.35055729 -30.04296875 51.47265625 C-26.68677701 51.32776498 -26.68677701 51.32776498 -24.73046875 49.66015625 C-22.17250714 45.96532281 -22.02607748 42.40915233 -22.60546875 38.03515625 C-25.00367904 33.23873567 -27.80904817 30.43336654 -32.60546875 28.03515625 C-36.6517359 27.3149207 -39.88965281 27.81058654 -43.79296875 29.03515625 C-47.76917286 31.86267917 -49.87144548 34.43301251 -51.60546875 39.03515625 C-52.32982915 44.91911213 -52.25507291 50.76330683 -52.20703125 56.68359375 C-52.21254283 58.42266835 -52.22067768 60.16173641 -52.23129272 61.90078735 C-52.25412645 66.47408889 -52.24999088 71.04691185 -52.23748779 75.62023926 C-52.21916861 82.90171517 -52.22963143 90.18290301 -52.26334763 97.46431351 C-52.26933841 99.97769133 -52.25632836 102.49042647 -52.24136353 105.00375366 C-52.23147734 119.19788956 -53.28919497 133.84775112 -59.29296875 146.91015625 C-59.64109619 147.69841797 -59.98922363 148.48667969 -60.34790039 149.29882812 C-63.42881271 156.066166 -67.08552954 162.11395044 -71.60546875 168.03515625 C-72.70568359 169.48341797 -72.70568359 169.48341797 -73.828125 170.9609375 C-78.30598749 176.63699304 -82.94646923 181.54837806 -88.60546875 186.03515625 C-89.43046875 186.73125 -90.25546875 187.42734375 -91.10546875 188.14453125 C-104.06630729 198.58520674 -119.61624745 204.83489723 -135.60546875 209.03515625 C-136.48460937 209.28007812 -137.36375 209.525 -138.26953125 209.77734375 C-156.24131928 213.94223431 -179.66532681 212.05243188 -196.60546875 205.03515625 C-196.93546875 204.37515625 -197.26546875 203.71515625 -197.60546875 203.03515625 C-196.63311279 203.0508667 -195.66075684 203.06657715 -194.65893555 203.08276367 C-191.00049346 203.137669 -187.34208662 203.17172308 -183.68334961 203.19995117 C-182.10939378 203.21490142 -180.5354786 203.23526919 -178.96166992 203.26147461 C-169.68275132 203.41194356 -161.45612035 203.1976372 -152.60546875 200.03515625 C-151.9081665 199.81061768 -151.21086426 199.5860791 -150.49243164 199.35473633 C-128.15106453 192.04981567 -108.52936161 178.34208724 -97.34155273 157.17431641 C-88.41753899 139.50082143 -86.31299589 122.67161243 -86.36163902 103.13002014 C-86.36732143 100.18448469 -86.35793111 97.23933017 -86.34443665 94.29382324 C-86.3076704 85.92974939 -86.2887505 77.56581299 -86.30004883 69.20166016 C-86.30594056 64.05650813 -86.28745457 58.91190165 -86.25415993 53.76686096 C-86.24627893 51.82468695 -86.24738215 49.88245232 -86.25818443 47.94029236 C-86.35409651 29.93219722 -83.24074065 16.45747863 -70.546875 2.82421875 C-50.51935741 -16.35810085 -21.78312056 -16.42715089 0 0 Z " fill="#D60212" transform="translate(374.60546875,235.96484375)"/>
</svg>
