<svg xmlns="http://www.w3.org/2000/svg" xml:space="preserve" x="0px" y="0px" style="enable-background:new 0 0 380 81.9" viewBox="0 0 380 81.9"><path d="m36.3 40.5 4.3-9.1H3.1l2.2 4.7c.9 2 1.3 3.3.7 6.5 0 .1-5.6 31.6-6 34-.4 2.5 1.1 3.7 3 3.7h31.6l-2.1-9.1H12.4l2-11.1H33l1.6-9.2H16l1.8-10.2 18.5-.2zm298.7 0 4.3-9.1h-35.7s.9 1.9 2.2 4.7c.9 2 1.3 3.3.7 6.5 0 .1-5.6 31.6-6 34-.4 2.5 1.1 3.7 3 3.7h29.8l-2.1-9.1h-18.5l2-11.1h16.9l1.6-9.2h-16.9l1.8-10.2 16.9-.2zm-231.1 3.2c.8-2.6 3.7-3.2 7.9-3.2h7.6l3.3-9.1h-13c-4.7 0-15.4-.4-17.8 10-3.2 14.6 15.7 18.8 14.8 25.4-.6 3.9-4.3 4.2-9.4 4.2H86l2.1 9.1H101c6.6 0 15.9-1.2 18.1-9.5 3.9-14.7-17.3-19.6-15.2-26.9zm141.6 2.1c.6-8-4.4-14.4-16.9-14.4h-18.3l2.2 4.7c.9 2 1.3 3.3.7 6.5l-6.6 37.7h11l3.2-18.3s.8-.1 3.1 0c3 .2 3.5 2.3 9.6 18.3h12c-6.5-16.1-7.6-19.1-9.6-21.1 4.9-2 9.1-6.8 9.6-13.4zm-11 .9c-.7 4-4.2 7-8.5 7h-3.7l2.3-13.2h4.2c4.1 0 6.3 2.7 5.7 6.2zM124.9 31.4l3.3 9.1h11.4l-7 39.7h11.5l7-39.7h12.8l3.3-9.1h-42.3zm215.4 0 3.3 9.1h9.6l-7 39.7h11.5l7-39.7h12l3.3-9.1h-39.7zm-60.2-10c-.5 0-1.1-.1-1.6-.1-14-1.6-17.5-2.6-18.5-20.4 0 0-.1-.9-.8-.9-.8 0-.8.9-.8.9-1 17.8-4.5 18.8-18.5 20.3-.5.1-1.1.1-1.6.1-.4 0-.9.2-.9.5 0 .4.4.5.9.6 15.4 1.9 18.8 3.2 20.1 25.4 0 .5.2 1 .8 1 .5 0 .8-.5.8-1 1.3-22.1 4.8-23.5 20.1-25.4.5-.1.9-.2.9-.6 0-.2-.5-.4-.9-.4zm1 10 2.2 4.7c.9 2 1.3 3.3.7 6.5l-3.3 18.6c-3.2 18.1-12.4 18.1-18.2 18.1-1.1 1.7 11 4.4 18.8.7 6.1-2.9 9.1-8.1 10.6-16.9.4-2.4 5.6-31.8 5.6-31.8l-16.4.1zM192 35.1c-.5-2.1-2.1-3.7-4.5-3.7h-14.1l2.3 4.9c1 2.1.8 3.5-.4 5.9l-20.1 38h11.6l5.9-11.6h16.2l2.2 11.6h11.4s-10-43-10.5-45.1zm-14.7 24.4 7.2-14.3 2.7 14.3h-9.9zM73.6 35.1c-.5-2.1-2.1-3.7-4.5-3.7H55l2.3 4.9c1 2.1.8 3.5-.4 5.9l-20.1 38h11.6l5.9-11.6h16.2l2.2 11.6h11.4s-10-43-10.5-45.1zM58.8 59.5 66 45.2l2.7 14.3h-9.9z" style="fill:#d12149"/></svg>