<?xml version="1.0" encoding="UTF-8"?>
<svg version="1.1" xmlns="http://www.w3.org/2000/svg" width="300" height="269">
<path d="M0 0 C99 0 198 0 300 0 C300 88.77 300 177.54 300 269 C201 269 102 269 0 269 C0 180.23 0 91.46 0 0 Z " fill="#C5352D" transform="translate(0,0)"/>
<path d="M0 0 C99 0 198 0 300 0 C300 88.77 300 177.54 300 269 C201 269 102 269 0 269 C0 180.23 0 91.46 0 0 Z M113.625 11.1875 C112.7172583 11.49719727 111.8095166 11.80689453 110.87426758 12.12597656 C86.27093859 20.73943252 58.13536135 39.06793855 46 63 C38.59444958 85.21665127 51.42876378 118.23454768 61 138 C49.64205072 118.34894489 44.13467612 98.22279609 40 76 C31.74031838 83.82374596 25.70243913 100.35780076 24.67578125 111.52734375 C26.18775143 127.72181952 43.39216872 146.47214157 53 159 C42.3486804 148.05281041 33.54970889 135.45406249 26.3046875 122.02734375 C25.65886719 121.02380859 25.65886719 121.02380859 25 120 C24.34 120 23.68 120 23 120 C22.97065856 123.97915085 22.95308735 127.95827337 22.9375 131.9375 C22.92912109 133.05447266 22.92074219 134.17144531 22.91210938 135.32226562 C22.87909141 146.58139204 22.87949248 154.56111907 30.8125 163.1875 C36.58332472 168.83121404 43.44059789 173.33159669 50 178 C43.71309579 175.15186177 38.31988644 171.97097562 33.0078125 167.55078125 C31.07694464 166.05943001 29.21461704 165.00799834 27 164 C30.95796538 188.50893947 46.88277996 209.01841562 64 226 C65.01126953 227.02480469 65.01126953 227.02480469 66.04296875 228.0703125 C81.21181206 242.60366693 101.65440081 252.30828259 122 257 C122.75901611 257.17660156 123.51803223 257.35320312 124.30004883 257.53515625 C132.51821145 259.25446925 140.70164659 259.3994746 149.0625 259.375 C149.79366028 259.37412384 150.52482056 259.37324768 151.27813721 259.37234497 C162.61416751 259.32755384 173.19311401 258.6217261 184 255 C184.78503906 254.7426709 185.57007813 254.4853418 186.37890625 254.22021484 C206.12658813 247.6260652 222.91588208 238.46894182 238 224 C238.82113281 223.24203125 239.64226562 222.4840625 240.48828125 221.703125 C254.31170772 208.54614677 263.78657781 191.88670595 270.625 174.1875 C270.88506836 173.52379395 271.14513672 172.86008789 271.41308594 172.17626953 C272.64922768 168.79485201 273.42675218 166.41217239 272 163 C271.48953125 163.49628906 270.9790625 163.99257812 270.453125 164.50390625 C264.48945005 170.0763472 258.1638564 174.12109298 251 178 C251.680625 177.46117187 252.36125 176.92234375 253.0625 176.3671875 C256.41534174 173.66529642 259.71646035 170.91039581 263 168.125 C263.60328125 167.62097656 264.2065625 167.11695313 264.828125 166.59765625 C271.91407642 160.57459755 276.08301462 155.78713966 276.88427734 146.21777344 C277.33946836 137.49423923 277.13767184 128.73051293 277 120 C276.34 120 275.68 120 275 120 C273.56223994 122.22503248 272.23854214 124.44653375 270.9375 126.75 C266.76957504 133.90516339 262.15174257 140.50739293 257 147 C256.58621094 147.52207031 256.17242187 148.04414063 255.74609375 148.58203125 C250.5859427 155.06772568 250.5859427 155.06772568 248 158 C247.67 158 247.34 158 247 158 C247.76570313 157.13955078 247.76570313 157.13955078 248.546875 156.26171875 C256.05995474 147.48313799 262.06387685 137.88787299 268 128 C268.4012207 127.33516602 268.80244141 126.67033203 269.21582031 125.98535156 C274.22511288 117.587254 274.22511288 117.587254 275 108 C274.19027984 105.59915538 274.19027984 105.59915538 273 103 C272.62094078 101.56356505 272.2465833 100.12588698 271.875 98.6875 C269.64760179 91.01921763 265.67439607 84.05220411 262 77 C261.67 76.34 261.34 75.68 261 75 C260.34 75 259.68 75 259 75 C258.93006836 75.56283691 258.86013672 76.12567383 258.78808594 76.70556641 C257.33894692 88.13792196 255.64520382 99.03797403 252 110 C251.66484375 111.11117187 251.3296875 112.22234375 250.984375 113.3671875 C247.73864833 123.44722595 242.57854552 132.05266292 237 141 C237.43570313 140.12601563 237.87140625 139.25203125 238.3203125 138.3515625 C249.375134 115.72650681 258.79949642 87.41551515 254 62 C251.97695846 56.85327064 248.55297308 53.13313361 244.53466797 49.42773438 C243.06671743 48.06206865 241.70318976 46.58668693 240.34765625 45.109375 C229.20249886 33.10947622 215.43290955 24.50558825 201 17 C200.04609375 16.49597656 199.0921875 15.99195313 198.109375 15.47265625 C183.15018975 8.10503357 165.49982936 5.63242402 149 5.75 C147.91460937 5.74226562 146.82921875 5.73453125 145.7109375 5.7265625 C134.50548063 5.75330583 124.21047356 7.55658283 113.625 11.1875 Z " fill="#FEFDFB" transform="translate(0,0)"/>
<path d="M0 0 C1.64838867 -0.02416992 1.64838867 -0.02416992 3.33007812 -0.04882812 C23.54099602 -0.06073792 43.04102735 8.71090091 57.58984375 22.58984375 C69.26664892 34.8285403 76.30489131 48.96796988 80.1875 65.3125 C80.38085938 66.10011719 80.57421875 66.88773437 80.7734375 67.69921875 C83.28932751 83.57780761 80.77762994 101.72006941 74.1875 116.3125 C73.72859375 117.33601563 73.2696875 118.35953125 72.796875 119.4140625 C65.69584414 133.85742139 54.28233604 145.95374047 38.9140625 151.4921875 C28.95591035 153.68423357 15.98031329 154.44825281 7.09765625 148.85546875 C1.12168025 144.02824887 -2.41151461 138.9542385 -3.8125 131.3125 C-5.2036741 117.7786088 -1.02471849 106.96293017 7.1875 96.3125 C16.77021504 85.12094101 27.51951549 74.88014663 38.00024414 64.53588867 C38.90508545 63.63974854 39.80992676 62.7436084 40.7421875 61.8203125 C41.55155762 61.02254395 42.36092773 60.22477539 43.19482422 59.40283203 C45.33514573 57.27802938 45.33514573 57.27802938 47.1875 54.3125 C46.90288224 49.76652184 44.66754504 46.11568469 42.4375 42.25 C41.93476563 41.33250977 41.93476563 41.33250977 41.421875 40.39648438 C38.20572392 34.76212879 34.45332064 31.16629309 28.1875 29.3125 C21.29832558 28.50200889 14.27228344 27.91517266 8.3125 31.9375 C6.29729708 33.57395643 4.29413991 35.22440975 2.29272461 36.87768555 C-4.21653302 41.75154641 -10.41759717 42.64942574 -18.375 43.5 C-20.73093865 43.78124754 -23.08640948 44.06644053 -25.44140625 44.35546875 C-27.20895264 44.56888916 -27.20895264 44.56888916 -29.01220703 44.78662109 C-35.65864968 45.70634597 -42.23213047 47.00952563 -48.8125 48.3125 C-48.18990799 48.33311493 -47.56731598 48.35372986 -46.92585754 48.37496948 C-40.38683089 48.59302513 -33.84825029 48.82203711 -27.30981445 49.05712891 C-24.8766421 49.1432161 -22.44337252 49.22660296 -20.01000977 49.30712891 C-16.49205342 49.4240333 -12.97457293 49.55097052 -9.45703125 49.6796875 C-8.38669144 49.71311249 -7.31635162 49.74653748 -6.21357727 49.78097534 C13.81885163 50.54927127 13.81885163 50.54927127 18.0365448 53.68893433 C19.1875 55.3125 19.1875 55.3125 19.5 58.4375 C17.5202367 68.01635477 2.95563068 75.11262899 -4.54296875 80.3203125 C-21.69098273 92.26508294 -35.76666705 104.56627251 -41.4296875 125.60546875 C-43.12866626 137.61967569 -42.0041887 149.66663588 -38.8125 161.3125 C-42.43621254 158.19018165 -43.60996168 155.53227054 -45 151 C-47.14398233 145.1236582 -49.26793102 142.55274975 -54.3515625 139.08203125 C-67.12588888 129.89668228 -75.15572653 114.18456424 -78.1875 98.9765625 C-81.87548601 75.47612892 -77.99010045 53.64813032 -65.125 33.6953125 C-63.45764063 31.44277412 -61.7055551 29.3790223 -59.8125 27.3125 C-59.00039062 26.42046875 -58.18828125 25.5284375 -57.3515625 24.609375 C-41.58276015 8.0724648 -22.74879927 -0.06601509 0 0 Z " fill="#FEFCF9" transform="translate(148.8125,9.6875)"/>
<path d="M0 0 C-0.71259108 7.16989794 -2.28766379 14.05564166 -3.9375 21.0625 C-4.20240234 22.20783203 -4.46730469 23.35316406 -4.74023438 24.53320312 C-6.02984319 30.06604096 -7.36521739 35.55862212 -9 41 C-13.29 41 -17.58 41 -22 41 C-21.125 32.25 -21.125 32.25 -20 30 C-24.95 30 -29.9 30 -35 30 C-35.99 32.475 -35.99 32.475 -37 35 C-38.48089336 37.47352116 -39.87725636 38.92550053 -42 41 C-45.3125 41.375 -45.3125 41.375 -48 41 C-46.24184874 36.80346039 -43.35312993 33.54891707 -40.5 30.0625 C-39.41176262 28.71825507 -38.32453995 27.37318811 -37.23828125 26.02734375 C-36.69381348 25.35300293 -36.1493457 24.67866211 -35.58837891 23.98388672 C-33.6772522 21.5968877 -31.80061714 19.18569767 -29.94116211 16.75830078 C-29.10919407 15.67439305 -28.27019245 14.59584596 -27.42407227 13.52294922 C-25.56375903 11.14892021 -23.90100884 8.82382514 -22.421875 6.19140625 C-17.2264903 -2.57238742 -9.09297439 -0.82849373 0 0 Z " fill="#FDF8F5" transform="translate(190,184)"/>
<path d="M0 0 C1.65322266 0.01740234 1.65322266 0.01740234 3.33984375 0.03515625 C4.44457031 0.04417969 5.54929688 0.05320313 6.6875 0.0625 C7.54214844 0.07410156 8.39679688 0.08570313 9.27734375 0.09765625 C7.31770527 7.09390943 4.97062259 13.93048321 2.52294922 20.76733398 C0.70172467 25.8582947 -1.01162849 30.96457296 -2.72265625 36.09765625 C4.86734375 36.09765625 12.45734375 36.09765625 20.27734375 36.09765625 C19.61734375 37.74765625 18.95734375 39.39765625 18.27734375 41.09765625 C6.72734375 41.09765625 -4.82265625 41.09765625 -16.72265625 41.09765625 C-15.9497504 35.68731529 -14.90704166 31.25704472 -13.03515625 26.23046875 C-12.77259033 25.51027557 -12.51002441 24.7900824 -12.23950195 24.04806519 C-11.68795605 22.53932488 -11.13313991 21.03177638 -10.57519531 19.52539062 C-9.71835356 17.21103455 -8.87205877 14.89302509 -8.02734375 12.57421875 C-7.48888785 11.10524626 -6.94984642 9.63648823 -6.41015625 8.16796875 C-6.15596924 7.4732547 -5.90178223 6.77854065 -5.63989258 6.06277466 C-3.43404657 0.1231724 -3.43404657 0.1231724 0 0 Z " fill="#FBF1ED" transform="translate(206.72265625,183.90234375)"/>
<path d="M0 0 C3.96 0 7.92 0 12 0 C10.23008503 7.41151894 7.88065098 14.58224074 5.3125 21.75 C5.01021484 22.64871826 4.70792969 23.54743652 4.39648438 24.47338867 C1.69953985 31.7970582 -2.11357563 36.54796954 -9.16455078 40.08618164 C-14.76332952 42.21654235 -20.13362093 42.36688424 -26.0625 42.1875 C-26.92810547 42.17396484 -27.79371094 42.16042969 -28.68554688 42.14648438 C-30.79064174 42.1115933 -32.89540974 42.05780665 -35 42 C-35 40.68 -35 39.36 -35 38 C-30.71441584 35.36904186 -26.84721942 35.92779896 -21.97265625 36.125 C-18.80450785 35.99177957 -16.7883044 35.49356131 -14 34 C-9.82597756 27.21721353 -7.60173273 19.49089492 -5 12 C-3.51614602 7.8781834 -1.96372978 3.92745956 0 0 Z " fill="#FCF3F0" transform="translate(141,184)"/>
<path d="M0 0 C1.12937988 0.00418945 2.25875977 0.00837891 3.42236328 0.01269531 C36.51714869 0.45464869 36.51714869 0.45464869 45.375 9.3125 C44.715 9.3125 44.055 9.3125 43.375 9.3125 C43.375 10.9625 43.375 12.6125 43.375 14.3125 C42.715 14.6425 42.055 14.9725 41.375 15.3125 C39.32002165 14.4751774 37.30419007 13.54087407 35.3125 12.5625 C17.04749866 3.87352034 -4.92353458 1.82393319 -24.4140625 8.0234375 C-28.83702528 9.79907949 -33.06232745 11.83801952 -37.234375 14.140625 C-39.625 15.3125 -39.625 15.3125 -42.625 15.3125 C-42.625 14.6525 -42.625 13.9925 -42.625 13.3125 C-41.965 13.3125 -41.305 13.3125 -40.625 13.3125 C-40.625 11.3325 -40.625 9.3525 -40.625 7.3125 C-38.21148209 6.51003592 -35.7947968 5.72063424 -33.375 4.9375 C-32.71242188 4.71578125 -32.04984375 4.4940625 -31.3671875 4.265625 C-21.06286569 0.96046517 -10.78264982 -0.05527063 0 0 Z " fill="#C03D36" transform="translate(148.625,5.6875)"/>
<path d="M0 0 C-0.33 1.32 -0.66 2.64 -1 4 C-1 3.01 -1 2.02 -1 1 C-3.46008778 1.08679142 -5.91643517 1.19360955 -8.375 1.3125 C-9.07367188 1.33505859 -9.77234375 1.35761719 -10.4921875 1.38085938 C-12.77288941 1.46984296 -12.77288941 1.46984296 -16 2 C-16.99 3.485 -16.99 3.485 -18 5 C-16.68 5 -15.36 5 -14 5 C-15.33333333 11.66666667 -16.66666667 18.33333333 -18 25 C-21.96 25 -25.92 25 -30 25 C-30 24.34 -30 23.68 -30 23 C-31.65 24.32 -33.3 25.64 -35 27 C-35.66 26.67 -36.32 26.34 -37 26 C-33.47798222 21.25179825 -33.47798222 21.25179825 -31.95507812 19.27636719 C-29.66076539 16.29097543 -27.52941947 13.29080759 -25.55078125 10.0859375 C-18.52850849 -0.75154286 -12.54809343 -1.85352846 0 0 Z " fill="#FAE8E3" transform="translate(190,184)"/>
<path d="M0 0 C0.495 1.485 0.495 1.485 1 3 C-0.98 3.99 -2.96 4.98 -5 6 C-5 6.99 -5 7.98 -5 9 C-5.33 10.32 -5.66 11.64 -6 13 C-29.265 12.505 -29.265 12.505 -53 12 C-48.9755516 9.9877758 -45.45720273 9.24392582 -41.0859375 8.5625 C-40.31625641 8.43689697 -39.54657532 8.31129395 -38.75357056 8.18188477 C-36.29499695 7.7817639 -33.83511912 7.3904951 -31.375 7 C-14.95147996 5.47209709 -14.95147996 5.47209709 0 0 Z " fill="#C0342C" transform="translate(149,47)"/>
<path d="M0 0 C0.99 0.33 1.98 0.66 3 1 C2.01 2.5159375 2.01 2.5159375 1 4.0625 C-6.81858765 19.97791684 2.23374743 46.61226692 7.12353516 62.4453125 C8.89748746 67.61596345 11.26376233 72.45115964 13.77734375 77.296875 C14.38255859 78.63492188 14.38255859 78.63492188 15 80 C14.67 80.66 14.34 81.32 14 82 C1.17257014 62.45344021 -4.05069202 40.74788 -8 18 C-7.34 18 -6.68 18 -6 18 C-5.34 19.98 -4.68 21.96 -4 24 C-3.96261719 22.9378125 -3.92523438 21.875625 -3.88671875 20.78125 C-3.56211713 13.33564535 -3.27243868 6.82943725 0 0 Z " fill="#F9E5E0" transform="translate(47,57)"/>
<path d="M0 0 C0.33 0 0.66 0 1 0 C1.33 7.26 1.66 14.52 2 22 C2.66 20.68 3.32 19.36 4 18 C3.66436971 27.16270682 1.80946946 35.29446707 -1 44 C-1.33773437 45.12277344 -1.67546875 46.24554688 -2.0234375 47.40234375 C-5.25216885 57.39767165 -10.20136758 66.26613063 -16 75 C-16.99 75.495 -16.99 75.495 -18 76 C-16.71283198 72.6943185 -15.2925269 69.50553068 -13.75 66.3125 C-4.09548105 45.00990363 -0.38705016 23.26304931 0 0 Z " fill="#F4D8D2" transform="translate(254,66)"/>
<path d="M0 0 C0 0.66 0 1.32 0 2 C7.59 2 15.18 2 23 2 C23 2.33 23 2.66 23 3 C22.4423999 3.0093457 21.8847998 3.01869141 21.31030273 3.02832031 C5.28579942 3.36411884 -8.30195932 4.93168247 -22.609375 12.828125 C-25 14 -25 14 -28 14 C-28 13.34 -28 12.68 -28 12 C-27.34 12 -26.68 12 -26 12 C-26 10.02 -26 8.04 -26 6 C-23.45986091 5.1824493 -20.91806769 4.37084814 -18.375 3.5625 C-17.66214844 3.33240234 -16.94929688 3.10230469 -16.21484375 2.86523438 C-10.77066819 1.14207789 -5.75369764 0 0 0 Z " fill="#BF3C36" transform="translate(134,7)"/>
<path d="M0 0 C0.33 0 0.66 0 1 0 C1 1.98 1 3.96 1 6 C0.34 6 -0.32 6 -1 6 C-0.979375 6.9075 -0.95875 7.815 -0.9375 8.75 C-1.01118346 12.58154017 -1.79650431 15.38951293 -3 19 C-2.01 19 -1.02 19 0 19 C0 16.69 0 14.38 0 12 C0.99 12.99 1.98 13.98 3 15 C1.59601721 19.10110762 -0.37087038 21.98089159 -3.125 25.3125 C-3.84945312 26.19550781 -4.57390625 27.07851562 -5.3203125 27.98828125 C-5.87460938 28.65214844 -6.42890625 29.31601563 -7 30 C-3.535 29.505 -3.535 29.505 0 29 C0 29.66 0 30.32 0 31 C-2.64 31 -5.28 31 -8 31 C-8 30.01 -8 29.02 -8 28 C-9.65 27.67 -11.3 27.34 -13 27 C-11.86111328 25.76443359 -11.86111328 25.76443359 -10.69921875 24.50390625 C-7.73893433 20.94885196 -6.29204182 17.27884051 -4.8125 12.9375 C-4.3193195 11.55067129 -3.82583689 10.16394999 -3.33203125 8.77734375 C-2.99292725 7.80643799 -2.99292725 7.80643799 -2.64697266 6.81591797 C-1.8281128 4.5175483 -0.92801147 2.25625537 0 0 Z " fill="#BF3932" transform="translate(149,195)"/>
<path d="M0 0 C0.66 0 1.32 0 2 0 C3.58991788 2.4115732 5.06275047 4.81223684 6.5 7.3125 C7.30157774 8.68388939 8.10364383 10.05499349 8.90625 11.42578125 C9.26009766 12.03848877 9.61394531 12.65119629 9.97851562 13.2824707 C10.93306796 14.88746011 11.96415606 16.44623409 13 18 C12.67 18.99 12.34 19.98 12 21 C12 20.34 12 19.68 12 19 C11.34 19 10.68 19 10 19 C9.566875 18.525625 9.13375 18.05125 8.6875 17.5625 C6.75227928 15.49778539 6.75227928 15.49778539 2 15 C2 19.29 2 23.58 2 28 C-0.29755922 24.55366118 -0.23643976 23.28931609 -0.1953125 19.23828125 C-0.18886719 18.12001953 -0.18242187 17.00175781 -0.17578125 15.84960938 C-0.15902344 14.68236328 -0.14226563 13.51511719 -0.125 12.3125 C-0.11597656 11.13365234 -0.10695313 9.95480469 -0.09765625 8.74023438 C-0.07406423 5.82661974 -0.0411454 2.91341108 0 0 Z " fill="#C43730" transform="translate(23,120)"/>
<path d="M0 0 C2.27971664 2.88819983 4.04626663 5.8202135 5.75 9.078125 C8.86051293 14.85753482 12.33921153 20.30677522 16 25.75 C16.59039062 26.64332031 17.18078125 27.53664062 17.7890625 28.45703125 C21.23878748 33.6164217 24.857449 38.37751931 29 43 C28.67 43.66 28.34 44.32 28 45 C0 16.31858407 0 16.31858407 0 5 C-0.66 4.67 -1.32 4.34 -2 4 C-1.34 4 -0.68 4 0 4 C0 2.68 0 1.36 0 0 Z " fill="#F8D5CE" transform="translate(25,115)"/>
<path d="M0 0 C0.33 0.66 0.66 1.32 1 2 C1.99 2.33 2.98 2.66 4 3 C3.34 3 2.68 3 2 3 C1.75765625 3.67546875 1.5153125 4.3509375 1.265625 5.046875 C-3.17298898 15.40364094 -10.25882611 24.66797027 -17.375 33.3125 C-17.96958008 34.0353418 -18.56416016 34.75818359 -19.17675781 35.50292969 C-21.92829558 38.77574574 -24.49833756 41.50983427 -28 44 C-26.40819713 40.3822662 -24.17084013 37.622983 -21.6875 34.5625 C-17.02754957 28.67132228 -13.00336723 22.45248123 -9.0625 16.0625 C-8.50715576 15.16281494 -7.95181152 14.26312988 -7.37963867 13.33618164 C-4.71730435 8.972334 -2.18548433 4.62226129 0 0 Z " fill="#F8DDD7" transform="translate(273,117)"/>
<path d="M0 0 C1.35949488 4.07848463 0.14486103 7.17680945 -0.9375 11.1875 C-1.13279297 11.93708984 -1.32808594 12.68667969 -1.52929688 13.45898438 C-2.01214375 15.30793459 -2.50510633 17.15423776 -3 19 C-6.63 19 -10.26 19 -14 19 C-12.48068953 15.96137906 -11.25835188 13.8932853 -9.1796875 11.328125 C-8.37724609 10.33232422 -8.37724609 10.33232422 -7.55859375 9.31640625 C-7.00300781 8.63449219 -6.44742188 7.95257813 -5.875 7.25 C-5.03001953 6.20392578 -5.03001953 6.20392578 -4.16796875 5.13671875 C-2.78192264 3.42178035 -1.39252792 1.709676 0 0 Z " fill="#B7413A" transform="translate(175,189)"/>
<path d="M0 0 C0.66 0.66 1.32 1.32 2 2 C1.34 2.99 0.68 3.98 0 5 C-2.81510292 5.39568507 -5.42284162 5.6066661 -8.25 5.6875 C-9.05034668 5.72093506 -9.85069336 5.75437012 -10.67529297 5.78881836 C-17.78248642 6.06065121 -24.88852741 6.10289912 -32 6 C-29.02267323 4.35415926 -26.34876649 3.53821172 -23.0078125 2.9296875 C-21.57888672 2.66865234 -21.57888672 2.66865234 -20.12109375 2.40234375 C-18.63802734 2.14130859 -18.63802734 2.14130859 -17.125 1.875 C-15.65353516 1.60236328 -15.65353516 1.60236328 -14.15234375 1.32421875 C-4.3556418 -0.43416365 -4.3556418 -0.43416365 0 0 Z " fill="#C1413A" transform="translate(128,53)"/>
<path d="M0 0 C1.19753906 -0.020625 2.39507812 -0.04125 3.62890625 -0.0625 C4.78003906 -0.06765625 5.93117187 -0.0728125 7.1171875 -0.078125 C8.70055908 -0.09214355 8.70055908 -0.09214355 10.31591797 -0.10644531 C13.4583294 0.29229627 14.81174066 1.14324442 17.125 3.25 C16.125 4.25 16.125 4.25 13.16577148 4.27172852 C11.87227783 4.22459717 10.57878418 4.17746582 9.24609375 4.12890625 C8.21610008 4.09348976 8.21610008 4.09348976 7.16529846 4.05735779 C4.96416372 3.9805582 2.76336656 3.89660497 0.5625 3.8125 C-0.92641557 3.75929557 -2.41534779 3.70655507 -3.90429688 3.65429688 C-7.56140673 3.52492148 -11.21824672 3.38912762 -14.875 3.25 C-14.875 2.59 -14.875 1.93 -14.875 1.25 C-10.54626724 -0.91436638 -4.75460518 0.02034056 0 0 Z " fill="#B7352D" transform="translate(148.875,5.75)"/>
<path d="M0 0 C1.53445094 3.06890187 0.54984289 5.70094266 0 9 C-0.99 9 -1.98 9 -3 9 C-4.70656431 10.30714596 -4.70656431 10.30714596 -6.4375 12.0625 C-11.37911551 16.56240686 -16.94235895 20.16688788 -23 23 C-23.66 22.67 -24.32 22.34 -25 22 C-24.17757812 21.38253906 -23.35515625 20.76507813 -22.5078125 20.12890625 C-10.07802993 11.22226725 -10.07802993 11.22226725 0 0 Z " fill="#F7CFC7" transform="translate(274,156)"/>
<path d="M0 0 C1.49273438 1.29357422 1.49273438 1.29357422 3.015625 2.61328125 C7.49559311 6.45373729 12.11571807 10.10739675 16.74609375 13.76367188 C17.38160156 14.26833984 18.01710938 14.77300781 18.671875 15.29296875 C19.2400293 15.7418042 19.80818359 16.19063965 20.39355469 16.65307617 C22.0256407 18.02149844 23.51706541 19.47251012 25 21 C20.39522363 19.66667669 16.83769266 17.81071241 12.875 15.125 C11.86179687 14.44695312 10.84859375 13.76890625 9.8046875 13.0703125 C7 11 7 11 4.8203125 8.7421875 C3.05872569 6.65428309 3.05872569 6.65428309 0 7 C0 4.69 0 2.38 0 0 Z " fill="#F8DED8" transform="translate(26,158)"/>
<path d="M0 0 C0.93045933 2.55144824 1.08564091 3.74006478 0.22265625 6.359375 C-0.35162109 7.54273438 -0.35162109 7.54273438 -0.9375 8.75 C-1.31777344 9.54921875 -1.69804687 10.3484375 -2.08984375 11.171875 C-2.39019531 11.77515625 -2.69054687 12.3784375 -3 13 C-4.010625 12.566875 -5.02125 12.13375 -6.0625 11.6875 C-9.76965475 10.64504956 -9.76965475 10.64504956 -12.0234375 11.98046875 C-13.76398858 13.24858453 -15.40434186 14.55469263 -17 16 C-17.66 15.34 -18.32 14.68 -19 14 C-18.29875 13.57589844 -17.5975 13.15179688 -16.875 12.71484375 C-10.74952078 8.92803255 -5.24133194 4.94096907 0 0 Z " fill="#BA4037" transform="translate(272,163)"/>
<path d="M0 0 C0 0.66 0 1.32 0 2 C7.59 2 15.18 2 23 2 C23 2.33 23 2.66 23 3 C22.42145264 3.01981934 21.84290527 3.03963867 21.24682617 3.06005859 C7.08472113 3.54410235 7.08472113 3.54410235 -6.890625 5.72265625 C-9.9573195 6.12586979 -12.25869892 5.33360593 -15 4 C-12.3851183 2.25674553 -10.9946567 1.58412043 -8.0625 0.875 C-7.39347656 0.70742187 -6.72445312 0.53984375 -6.03515625 0.3671875 C-4 0 -4 0 0 0 Z " fill="#BB4841" transform="translate(134,7)"/>
<path d="M0 0 C0.33 0.99 0.66 1.98 1 3 C1.66 3 2.32 3 3 3 C1.49793494 7.64274654 -0.53844847 10.6171201 -4 14 C-7.3125 14.375 -7.3125 14.375 -10 14 C-8.43632643 10.47761953 -6.30504111 7.72876006 -3.875 4.75 C-3.15054688 3.85796875 -2.42609375 2.9659375 -1.6796875 2.046875 C-0.84824219 1.03367188 -0.84824219 1.03367188 0 0 Z " fill="#FAE8E4" transform="translate(152,211)"/>
<path d="M0 0 C2.22086136 3.33129204 2.78119923 5.86233876 3.6875 9.75 C5.30079133 16.33875648 7.72212403 22.21534246 10.80151367 28.25097656 C11.58552265 29.80927104 12.29958842 31.40238447 13 33 C12.67 33.66 12.34 34.32 12 35 C4.83092832 23.73794767 -1.33568521 13.72787576 0 0 Z " fill="#F7C2B7" transform="translate(49,104)"/>
<path d="M0 0 C0.33 0 0.66 0 1 0 C1.0501123 0.59425781 1.10022461 1.18851563 1.15185547 1.80078125 C1.38621755 4.53447409 1.63054322 7.2671921 1.875 10 C1.95363281 10.93457031 2.03226562 11.86914062 2.11328125 12.83203125 C2.62070079 18.41364619 3.48506257 23.60223974 5 29 C1.31594134 25.81974423 -0.11258392 22.798378 -1.75 18.25 C-2.39195313 16.49429688 -2.39195313 16.49429688 -3.046875 14.703125 C-3.51867187 13.36507812 -3.51867187 13.36507812 -4 12 C-3.51917969 11.60167969 -3.03835937 11.20335937 -2.54296875 10.79296875 C-0.62608175 8.56549753 -0.52258357 7.21165331 -0.3125 4.3125 C-0.21388672 3.10013672 -0.21388672 3.10013672 -0.11328125 1.86328125 C-0.07589844 1.24839844 -0.03851563 0.63351563 0 0 Z " fill="#F4D6D1" transform="translate(105,142)"/>
<path d="M0 0 C0 1.65 0 3.3 0 5 C-1.65 5.33 -3.3 5.66 -5 6 C-5.33 6.99 -5.66 7.98 -6 9 C-6.66 9 -7.32 9 -8 9 C-8.226875 9.7425 -8.45375 10.485 -8.6875 11.25 C-10.27044234 14.5666411 -12.13188839 15.73219082 -15 18 C-16.80100276 20.26104151 -18.38357248 22.59845054 -20 25 C-20.66 24.67 -21.32 24.34 -22 24 C-4.41017488 0 -4.41017488 0 0 0 Z " fill="#B83E36" transform="translate(69,37)"/>
<path d="M0 0 C0.66 0 1.32 0 2 0 C5 4.38461538 5 4.38461538 5 7 C4.34 7 3.68 7 3 7 C2.67 13.93 2.34 20.86 2 28 C-0.29755922 24.55366118 -0.23643976 23.28931609 -0.1953125 19.23828125 C-0.18886719 18.12001953 -0.18242187 17.00175781 -0.17578125 15.84960938 C-0.15902344 14.68236328 -0.14226563 13.51511719 -0.125 12.3125 C-0.11597656 11.13365234 -0.10695313 9.95480469 -0.09765625 8.74023438 C-0.07406423 5.82661974 -0.0411454 2.91341108 0 0 Z " fill="#B74E45" transform="translate(23,120)"/>
<path d="M0 0 C6.27 0 12.54 0 19 0 C19 0.99 19 1.98 19 3 C12.4 3 5.8 3 -1 3 C-0.67 2.01 -0.34 1.02 0 0 Z " fill="#FEFAF7" transform="translate(207,221)"/>
<path d="M0 0 C-0.33 1.32 -0.66 2.64 -1 4 C-1 3.01 -1 2.02 -1 1 C-3.46008778 1.08679142 -5.91643517 1.19360955 -8.375 1.3125 C-9.07367188 1.33505859 -9.77234375 1.35761719 -10.4921875 1.38085938 C-12.77288941 1.46984296 -12.77288941 1.46984296 -16 2 C-16.99 3.485 -16.99 3.485 -18 5 C-17.01 5.33 -16.02 5.66 -15 6 C-16.65 7.65 -18.3 9.3 -20 11 C-20.99 10.01 -21.98 9.02 -23 8 C-18.64505359 -2.66128957 -9.81402829 -0.78687087 0 0 Z " fill="#F8DBD5" transform="translate(190,184)"/>
<path d="M0 0 C0.66 0.99 1.32 1.98 2 3 C-3.73049644 10.59760491 -9.53014857 18.00605447 -16 25 C-16 20.98316099 -14.55007841 20.00075784 -11.9375 17 C-7.40478821 11.62816277 -3.6188372 6.01588049 0 0 Z " fill="#F9C6BC" transform="translate(262,136)"/>
<path d="M0 0 C0 0.66 0 1.32 0 2 C0.928125 1.79375 1.85625 1.5875 2.8125 1.375 C6 1 6 1 9 3 C10.54766142 3.5827119 12.11192222 4.12264187 13.6875 4.625 C14.89986328 5.01558594 14.89986328 5.01558594 16.13671875 5.4140625 C17.05904297 5.70410156 17.05904297 5.70410156 18 6 C13.87745797 7.68551848 10.10196511 6.28358669 6 5.1875 C5.2884375 5.00896484 4.576875 4.83042969 3.84375 4.64648438 C0.36111764 3.74658777 -2.87244069 2.79997554 -6 1 C-4 0 -4 0 0 0 Z " fill="#BD453D" transform="translate(114,251)"/>
<path d="M0 0 C2.39122069 3.03749655 4.32254409 6.17795039 6.1875 9.5625 C6.71730469 10.51253906 7.24710938 11.46257812 7.79296875 12.44140625 C9 15 9 15 9 18 C5.21429586 16.73809862 4.78168429 15.45144185 2.8125 12.0625 C2.28269531 11.16660156 1.75289062 10.27070312 1.20703125 9.34765625 C0 7 0 7 0 5 C-0.66 4.67 -1.32 4.34 -2 4 C-1.34 4 -0.68 4 0 4 C0 2.68 0 1.36 0 0 Z " fill="#F8DED7" transform="translate(25,115)"/>
<path d="M0 0 C3.31478645 1.65739322 5.75252953 3.23276578 8.625 5.5 C9.40101562 6.1084375 10.17703125 6.716875 10.9765625 7.34375 C13 9 13 9 15 11 C13.68 11 12.36 11 11 11 C11 10.34 11 9.68 11 9 C10.195625 9.020625 9.39125 9.04125 8.5625 9.0625 C6 9 6 9 5 8 C4.34 9.32 3.68 10.64 3 12 C2.01 8.04 1.02 4.08 0 0 Z " fill="#BA3B32" transform="translate(27,164)"/>
<path d="M0 0 C2.125 0.375 2.125 0.375 4 1 C0.12207712 5.92908146 -3.76116833 9.5423711 -9 13 C-9 10 -9 10 -7.125 7.8125 C-5 6 -5 6 -3 6 C-2.814375 5.071875 -2.814375 5.071875 -2.625 4.125 C-2 2 -2 2 0 0 Z " fill="#BC372F" transform="translate(235,221)"/>
<path d="M0 0 C1.3606152 0.03962957 2.72061697 0.11085657 4.078125 0.2109375 C4.77550781 0.23800781 5.47289062 0.26507813 6.19140625 0.29296875 C7.90498205 0.36338967 9.61695802 0.47100837 11.328125 0.5859375 C10.998125 2.5659375 10.668125 4.5459375 10.328125 6.5859375 C9.668125 6.2559375 9.008125 5.9259375 8.328125 5.5859375 C8.328125 4.5959375 8.328125 3.6059375 8.328125 2.5859375 C6.5563531 2.64609953 4.78553821 2.73493078 3.015625 2.8359375 C2.02949219 2.88234375 1.04335937 2.92875 0.02734375 2.9765625 C-2.81127592 3.34563988 -2.81127592 3.34563988 -4.52734375 5.6328125 C-5.09388672 6.59960938 -5.09388672 6.59960938 -5.671875 7.5859375 C-6.331875 7.2559375 -6.991875 6.9259375 -7.671875 6.5859375 C-4.70032139 0.75005129 -4.70032139 0.75005129 0 0 Z " fill="#B9423A" transform="translate(158.671875,213.4140625)"/>
<path d="M0 0 C1.26977059 3.80931176 0.52074507 5.81618993 -0.4375 9.6875 C-0.72496094 10.86699219 -1.01242188 12.04648438 -1.30859375 13.26171875 C-1.53675781 14.16535156 -1.76492187 15.06898438 -2 16 C-2.66 15.34 -3.32 14.68 -4 14 C-4 12.68 -4 11.36 -4 10 C-5.32 10.33 -6.64 10.66 -8 11 C-7.59007812 10.45730469 -7.18015625 9.91460937 -6.7578125 9.35546875 C-6.21898437 8.64003906 -5.68015625 7.92460937 -5.125 7.1875 C-4.59132812 6.47980469 -4.05765625 5.77210938 -3.5078125 5.04296875 C-2.29185219 3.39543703 -1.13583859 1.70375789 0 0 Z " fill="#B84841" transform="translate(175,189)"/>
<path d="M0 0 C0.33 0 0.66 0 1 0 C0.67 2.31 0.34 4.62 0 7 C0.66 7 1.32 7 2 7 C1.34 8.65 0.68 10.3 0 12 C3.465 11.505 3.465 11.505 7 11 C7 11.66 7 12.32 7 13 C4.36 13 1.72 13 -1 13 C-1 12.01 -1 11.02 -1 10 C-2.65 9.67 -4.3 9.34 -6 9 C-4.73046875 7.53515625 -3.4609375 6.0703125 -2.19140625 4.60546875 C-0.79128769 2.89287029 -0.79128769 2.89287029 0 0 Z " fill="#BD433D" transform="translate(142,213)"/>
<path d="M0 0 C1.89492187 0.01353516 1.89492187 0.01353516 3.828125 0.02734375 C4.79234375 0.03894531 5.7565625 0.05054688 6.75 0.0625 C6.42 0.7225 6.09 1.3825 5.75 2.0625 C-1.10813161 3.65741433 -8.25292842 3.14984209 -15.25 3.0625 C-10.0197033 0.26055534 -5.94666048 -0.05506167 0 0 Z " fill="#B3453B" transform="translate(111.25,55.9375)"/>
<path d="M0 0 C0.66 0 1.32 0 2 0 C1.57835981 1.98260599 1.13721222 3.96107245 0.6875 5.9375 C0.44386719 7.03964844 0.20023438 8.14179687 -0.05078125 9.27734375 C-0.36402344 10.17582031 -0.67726563 11.07429688 -1 12 C-1.99 12.33 -2.98 12.66 -4 13 C-3.67 14.98 -3.34 16.96 -3 19 C-3.99 19 -4.98 19 -6 19 C-7 17 -7 17 -6.47094727 15.21240234 C-6.17244873 14.51066895 -5.8739502 13.80893555 -5.56640625 13.0859375 C-5.24736328 12.32539062 -4.92832031 11.56484375 -4.59960938 10.78125 C-4.25736328 9.9871875 -3.91511719 9.193125 -3.5625 8.375 C-3.22412109 7.57320313 -2.88574219 6.77140625 -2.53710938 5.9453125 C-1.69833222 3.96060036 -0.85004755 1.97991125 0 0 Z " fill="#BE4941" transform="translate(34,84)"/>
<path d="M0 0 C0.33 0.66 0.66 1.32 1 2 C1.33 2.33 1.66 2.66 2 3 C1.57206674 5.2109885 1.00940379 6.98119242 0 9 C-0.66 9 -1.32 9 -2 9 C-2 8.34 -2 7.68 -2 7 C-3.65 6.67 -5.3 6.34 -7 6 C-7 6.66 -7 7.32 -7 8 C-8.32 7.67 -9.64 7.34 -11 7 C-7.37 4.69 -3.74 2.38 0 0 Z " fill="#BE3C34" transform="translate(204,151)"/>
<path d="M0 0 C0.99 0.66 1.98 1.32 3 2 C1.41555427 6.32421646 -0.717804 10.26442583 -3 14.25 C-3.35578125 14.88679687 -3.7115625 15.52359375 -4.078125 16.1796875 C-6.75762649 20.87881324 -6.75762649 20.87881324 -9 22 C-7.61701378 18.45929917 -6.10328479 15.00858469 -4.5 11.5625 C-2.75875553 7.76155337 -1.19373656 4.0152957 0 0 Z " fill="#F0A89D" transform="translate(245,120)"/>
<path d="M0 0 C0.33 0 0.66 0 1 0 C1 1.98 1 3.96 1 6 C0.34 6 -0.32 6 -1 6 C-0.979375 6.9075 -0.95875 7.815 -0.9375 8.75 C-1.03355705 13.74496644 -1.03355705 13.74496644 -2 16 C-4.0625 17.25 -4.0625 17.25 -6 18 C-5.41347648 13.51006131 -4.2356462 9.77456816 -2.4375 5.625 C-1.98246094 4.56539062 -1.52742187 3.50578125 -1.05859375 2.4140625 C-0.70925781 1.61742187 -0.35992187 0.82078125 0 0 Z " fill="#BE4640" transform="translate(149,195)"/>
<path d="M0 0 C2.86724686 0.57344937 3.8614515 0.8614515 6 3 C6.66 3.33 7.32 3.66 8 4 C7.67 4.66 7.34 5.32 7 6 C8.32 5.34 9.64 4.68 11 4 C11.28875 4.928125 11.5775 5.85625 11.875 6.8125 C12.8875 10.09791667 12.8875 10.09791667 15 13 C11.34119259 11.4307213 8.74472372 9.1680204 5.8125 6.5 C4.93207031 5.7059375 4.05164063 4.911875 3.14453125 4.09375 C1 2 1 2 0 0 Z " fill="#B93D35" transform="translate(27,158)"/>
<path d="M0 0 C0.33 0 0.66 0 1 0 C1 2.97 1 5.94 1 9 C0.21625 9.2475 -0.5675 9.495 -1.375 9.75 C-4.32317108 11.15389099 -4.9024777 12.00675737 -6 15 C-6.66 14.67 -7.32 14.34 -8 14 C-7.59007812 13.32453125 -7.18015625 12.6490625 -6.7578125 11.953125 C-6.21898437 11.06109375 -5.68015625 10.1690625 -5.125 9.25 C-4.59132812 8.36828125 -4.05765625 7.4865625 -3.5078125 6.578125 C-2.24403334 4.41725907 -1.08501165 2.25429605 0 0 Z " fill="#BE443C" transform="translate(222,126)"/>
<path d="M0 0 C0.33 0.99 0.66 1.98 1 3 C-1.88919671 7.84530654 -6.23006431 11.16075257 -11 14 C-11.66 13.67 -12.32 13.34 -13 13 C-8.71 8.71 -4.42 4.42 0 0 Z " fill="#F7DED7" transform="translate(176,85)"/>
<path d="M0 0 C-1.38188453 3.21043882 -2.92421903 5.04936365 -5.625 7.25 C-6.25664062 7.77078125 -6.88828125 8.2915625 -7.5390625 8.828125 C-8.02117187 9.21484375 -8.50328125 9.6015625 -9 10 C-9.33 8.35 -9.66 6.7 -10 5 C-8.35 4.67 -6.7 4.34 -5 4 C-5.33 2.68 -5.66 1.36 -6 0 C-3 -1 -3 -1 0 0 Z " fill="#BF433C" transform="translate(191,69)"/>
<path d="M0 0 C0.33 0.66 0.66 1.32 1 2 C0.34 2 -0.32 2 -1 2 C-1 2.66 -1 3.32 -1 4 C-3.63892176 5.78305524 -5.97178863 6.99059621 -9 8 C-9 8.66 -9 9.32 -9 10 C-10.8125 11.6875 -10.8125 11.6875 -13 13 C-13.99 12.67 -14.98 12.34 -16 12 C-10.94783982 7.28006804 -6.17398461 3.15267299 0 0 Z " fill="#FBE9E4" transform="translate(111,19)"/>
<path d="M0 0 C5.17609824 3.28157862 9.85989729 6.45924219 14 11 C8.19657726 9.51194289 3.82409121 6.40902445 -1 3 C-0.67 2.01 -0.34 1.02 0 0 Z " fill="#F7C9C1" transform="translate(37,168)"/>
<path d="M0 0 C0 3.5615162 -0.73209429 4.31978575 -2.875 7.0625 C-3.40867187 7.75472656 -3.94234375 8.44695312 -4.4921875 9.16015625 C-6 11 -6 11 -8 13 C-8.99 12.67 -9.98 12.34 -11 12 C-9.54234835 10.37438849 -8.08385614 8.74953066 -6.625 7.125 C-5.81289062 6.22007813 -5.00078125 5.31515625 -4.1640625 4.3828125 C-2.80923795 2.89103817 -1.42494565 1.42494565 0 0 Z " fill="#B93E36" transform="translate(128,101)"/>
<path d="M0 0 C0.99 0.495 0.99 0.495 2 1 C2.59423828 2.85766602 2.59423828 2.85766602 3.0703125 5.25390625 C3.33134766 6.53491211 3.33134766 6.53491211 3.59765625 7.84179688 C3.77167969 8.73962891 3.94570313 9.63746094 4.125 10.5625 C4.30675781 11.46419922 4.48851562 12.36589844 4.67578125 13.29492188 C5.12486699 15.52853252 5.56589404 17.76343808 6 20 C2.16091954 16.59003831 2.16091954 16.59003831 1.42578125 13.89453125 C1.38839844 13.20746094 1.35101563 12.52039063 1.3125 11.8125 C1.43155899 8.21589984 1.43155899 8.21589984 0 7 C-0.04092937 4.66702567 -0.04241723 2.33294775 0 0 Z " fill="#BB4F48" transform="translate(41,89)"/>
<path d="M0 0 C0.33 0 0.66 0 1 0 C1.125 6.625 1.125 6.625 0 10 C3.3 10 6.6 10 10 10 C10.33 9.34 10.66 8.68 11 8 C11 8.99 11 9.98 11 11 C6.71 11 2.42 11 -2 11 C-1.125 2.25 -1.125 2.25 0 0 Z " fill="#F9DED7" transform="translate(170,214)"/>
<path d="M0 0 C0.33 0.99 0.66 1.98 1 3 C-6.50216736 6.0517291 -12.94635715 6.33608711 -21 6 C-21 5.67 -21 5.34 -21 5 C-19.90300781 4.89042969 -18.80601562 4.78085937 -17.67578125 4.66796875 C-16.22128484 4.50844334 -14.76686137 4.34825187 -13.3125 4.1875 C-12.59126953 4.11724609 -11.87003906 4.04699219 -11.12695312 3.97460938 C-6.72475171 3.47207497 -3.68603803 2.65365657 0 0 Z " fill="#BA473F" transform="translate(149,47)"/>
<path d="M0 0 C1.32 0 2.64 0 4 0 C4 0.66 4 1.32 4 2 C11.59 2 19.18 2 27 2 C27 2.33 27 2.66 27 3 C14.625 3.495 14.625 3.495 2 4 C2 3.34 2 2.68 2 2 C1.34 1.34 0.68 0.68 0 0 Z " fill="#CB6460" transform="translate(130,7)"/>
<path d="M0 0 C0.66 0 1.32 0 2 0 C2.33 2.31 2.66 4.62 3 7 C0.69 7.33 -1.62 7.66 -4 8 C-4.33 7.34 -4.66 6.68 -5 6 C-4.34 6 -3.68 6 -3 6 C-3 5.34 -3 4.68 -3 4 C-2.34 3.34 -1.68 2.68 -1 2 C-0.67 1.34 -0.34 0.68 0 0 Z " fill="#C5322B" transform="translate(169,199)"/>
<path d="M0 0 C1.53445094 3.06890187 0.54984289 5.70094266 0 9 C-0.99 9 -1.98 9 -3 9 C-3.99 9.66 -4.98 10.32 -6 11 C-6.66 10.34 -7.32 9.68 -8 9 C-5.36 6.03 -2.72 3.06 0 0 Z " fill="#FBE3DC" transform="translate(274,156)"/>
<path d="M0 0 C2.20665404 3.30998105 2.78262095 5.82021436 3.625 9.6875 C3.88539062 10.86699219 4.14578125 12.04648438 4.4140625 13.26171875 C4.60742188 14.16535156 4.80078125 15.06898437 5 16 C4.01 16.33 3.02 16.66 2 17 C0.14868517 13.07142246 -0.22004943 10.01224888 -0.125 5.6875 C-0.10695312 4.61886719 -0.08890625 3.55023438 -0.0703125 2.44921875 C-0.04710937 1.64097656 -0.02390625 0.83273438 0 0 Z " fill="#F7D3CE" transform="translate(49,104)"/>
<path d="M0 0 C0.061875 0.61875 0.12375 1.2375 0.1875 1.875 C0.455625 2.57625 0.72375 3.2775 1 4 C1.804375 4.28875 2.60875 4.5775 3.4375 4.875 C6 6 6 6 7.3125 9.125 C7.6528125 10.548125 7.6528125 10.548125 8 12 C7.01 12.495 7.01 12.495 6 13 C5.03760548 11.75312408 4.08025991 10.50235031 3.125 9.25 C2.59132812 8.55390625 2.05765625 7.8578125 1.5078125 7.140625 C0.10761086 5.15277397 -0.97855265 3.20156614 -2 1 C-1.34 0.67 -0.68 0.34 0 0 Z " fill="#BA3E35" transform="translate(210,33)"/>
<path d="M0 0 C1.32 0 2.64 0 4 0 C2.4169423 4.2742558 -0.50568404 6.26531794 -4 9 C-3.47679633 5.23293356 -2.72611199 2.72611199 0 0 Z " fill="#BD3E38" transform="translate(269,157)"/>
<path d="M0 0 C0.33 0 0.66 0 1 0 C1 7.26 1 14.52 1 22 C0.67 22 0.34 22 0 22 C0 16.72 0 11.44 0 6 C-0.99 6.33 -1.98 6.66 -3 7 C-1.125 2.25 -1.125 2.25 0 0 Z " fill="#AF3730" transform="translate(275,120)"/>
<path d="M0 0 C0.66 0 1.32 0 2 0 C3.75163456 3.77222089 4.22490027 6.666639 4.125 10.8125 C4.10695313 11.78832031 4.08890625 12.76414062 4.0703125 13.76953125 C4.03550781 14.87361328 4.03550781 14.87361328 4 16 C2.60025314 13.36518239 1.58775959 10.89629292 0.875 8 C0.70742188 7.34 0.53984375 6.68 0.3671875 6 C0 4 0 4 0 0 Z " fill="#B9413A" transform="translate(49,100)"/>
<path d="M0 0 C11.52164009 0.96355353 11.52164009 0.96355353 17 2 C17 2.33 17 2.66 17 3 C15.93072266 2.98259766 15.93072266 2.98259766 14.83984375 2.96484375 C9.43674634 2.91393974 4.32171525 3.05391729 -1 4 C-0.01 3.34 0.98 2.68 2 2 C1.34 1.34 0.68 0.68 0 0 Z " fill="#B74840" transform="translate(163,7)"/>
<path d="M0 0 C0.33 0 0.66 0 1 0 C1.33 2.64 1.66 5.28 2 8 C1.01 8.33 0.02 8.66 -1 9 C-1 11.31 -1 13.62 -1 16 C-1.66 16 -2.32 16 -3 16 C-2.69075786 13.89535207 -2.3774944 11.7912947 -2.0625 9.6875 C-1.88847656 8.51574219 -1.71445313 7.34398437 -1.53515625 6.13671875 C-1 3 -1 3 0 0 Z " fill="#BB4841" transform="translate(188,192)"/>
<path d="M0 0 C0.33 0 0.66 0 1 0 C1.99 4.62 2.98 9.24 4 14 C0.23312136 10.23312136 -0.67652988 8.85272378 -2 4 C-1.34 4 -0.68 4 0 4 C0 2.68 0 1.36 0 0 Z " fill="#F6C9C0" transform="translate(106,157)"/>
<path d="M0 0 C9.59453303 5.0022779 9.59453303 5.0022779 13 9 C11.51800098 8.55090939 10.03944764 8.09043436 8.5625 7.625 C7.73878906 7.36976562 6.91507813 7.11453125 6.06640625 6.8515625 C4 6 4 6 3 4 C2.01 4 1.02 4 0 4 C0 2.68 0 1.36 0 0 Z " fill="#B73F37" transform="translate(211,23)"/>
<path d="M0 0 C-2.2008849 2.47859908 -4.06372969 3.61210366 -7.1875 4.6875 C-8.26064453 5.06455078 -8.26064453 5.06455078 -9.35546875 5.44921875 C-9.89816406 5.63097656 -10.44085938 5.81273437 -11 6 C-10.42260517 2.96867715 -10.25754798 2.20746921 -7.75 0.1875 C-4.60136553 -1.17213761 -3.21729991 -1.0111514 0 0 Z " fill="#B93B33" transform="translate(211,243)"/>
<path d="M0 0 C1.32 0.33 2.64 0.66 4 1 C4 1.99 4 2.98 4 4 C4.66 4 5.32 4 6 4 C5.67 4.66 5.34 5.32 5 6 C0.71 5.34 -3.58 4.68 -8 4 C-8 3.67 -8 3.34 -8 3 C-5.36 2.67 -2.72 2.34 0 2 C0 1.34 0 0.68 0 0 Z " fill="#BB453D" transform="translate(160,57)"/>
<path d="M0 0 C0.89203125 0.01804688 1.7840625 0.03609375 2.703125 0.0546875 C3.71632812 0.08949219 3.71632812 0.08949219 4.75 0.125 C1.74559979 2.12793347 0.04006055 2.61771626 -3.4375 3.25 C-4.78908203 3.50136719 -4.78908203 3.50136719 -6.16796875 3.7578125 C-6.85503906 3.87898438 -7.54210937 4.00015625 -8.25 4.125 C-8.58 3.465 -8.91 2.805 -9.25 2.125 C-6.03817851 0.21891902 -3.71117397 -0.09766247 0 0 Z " fill="#BB3E39" transform="translate(182.25,252.875)"/>
<path d="M0 0 C0.66 0.33 1.32 0.66 2 1 C-1.97969651 5.64297927 -7.07344433 7.29445766 -13 8 C-10.23145402 5.85090038 -7.42165474 3.98221172 -4.375 2.25 C-3.59898437 1.80140625 -2.82296875 1.3528125 -2.0234375 0.890625 C-1.35570312 0.59671875 -0.68796875 0.3028125 0 0 Z " fill="#F6D9D4" transform="translate(218,239)"/>
<path d="M0 0 C0.66 0 1.32 0 2 0 C0.85248597 4.7539867 -0.38262517 9.37892907 -2 14 C-3.37913361 10.16907332 -2.78648334 6.9324167 -2 3 C-1.34 2.01 -0.68 1.02 0 0 Z " fill="#B84039" transform="translate(248,106)"/>
<path d="M0 0 C0.66 0.66 1.32 1.32 2 2 C4.89967757 2.30675232 7.71783178 2.51173371 10.625 2.625 C11.42679688 2.66367188 12.22859375 2.70234375 13.0546875 2.7421875 C15.03607556 2.83653931 17.01800645 2.91936215 19 3 C19 3.33 19 3.66 19 4 C12.73 4 6.46 4 0 4 C0 2.68 0 1.36 0 0 Z " fill="#F9DAD5" transform="translate(106,222)"/>
<path d="M0 0 C-1.98 2.97 -1.98 2.97 -4 6 C-4.33 4.68 -4.66 3.36 -5 2 C-5.99 2 -6.98 2 -8 2 C-8 1.34 -8 0.68 -8 0 C-5.13822943 -1.43088528 -3.06624227 -0.59991697 0 0 Z " fill="#BF3A33" transform="translate(251,209)"/>
<path d="M0 0 C3.16115776 1.36983503 3.9927092 1.9890638 6 5 C5.01 5 4.02 5 3 5 C3.33 7.31 3.66 9.62 4 12 C1.78600697 8.20458337 0.99019802 4.24370579 0 0 Z " fill="#B4463E" transform="translate(27,164)"/>
<path d="M0 0 C4.95 0 9.9 0 15 0 C15 0.33 15 0.66 15 1 C11.7 1 8.4 1 5 1 C4.67 1.99 4.34 2.98 4 4 C3.01 3.67 2.02 3.34 1 3 C0.67 2.01 0.34 1.02 0 0 Z " fill="#BF2E25" transform="translate(107,227)"/>
<path d="M0 0 C3.59634744 3.49359465 6.83451967 7.11098131 10 11 C9.67 11.66 9.34 12.32 9 13 C5.7 9.37 2.4 5.74 -1 2 C-0.67 1.34 -0.34 0.68 0 0 Z " fill="#F9BBB1" transform="translate(44,147)"/>
<path d="M0 0 C4.8 3.44615385 4.8 3.44615385 5.8125 6.25 C5.874375 6.8275 5.93625 7.405 6 8 C3.525 7.01 3.525 7.01 1 6 C0.67 6.66 0.34 7.32 0 8 C0 5.36 0 2.72 0 0 Z " fill="#CA4036" transform="translate(59,136)"/>
<path d="M0 0 C2.60018816 3.90028225 2.15085514 7.47434569 2 12 C1 10 0 8 -1 6 C-1.66 5.67 -2.32 5.34 -3 5 C-2.01 3.35 -1.02 1.7 0 0 Z " fill="#B13D36" transform="translate(39,76)"/>
<path d="M0 0 C-0.375 2.4375 -0.375 2.4375 -1 5 C-1.99 5.495 -1.99 5.495 -3 6 C-3 5.01 -3 4.02 -3 3 C-3.99 3 -4.98 3 -6 3 C-6 3.66 -6 4.32 -6 5 C-7.32 4.67 -8.64 4.34 -10 4 C-8.71086513 3.32845067 -7.41859796 2.66291141 -6.125 2 C-5.40570313 1.62875 -4.68640625 1.2575 -3.9453125 0.875 C-2 0 -2 0 0 0 Z " fill="#BE443E" transform="translate(103,16)"/>
<path d="M0 0 C0 0.33 0 0.66 0 1 C-5.78357065 3.01167675 -10.90218999 3.22084624 -17 3 C-17 2.67 -17 2.34 -17 2 C-11.19233704 0.4943096 -6.0018137 -0.21824777 0 0 Z " fill="#F7DCD5" transform="translate(144,10)"/>
<path d="M0 0 C-1.45255699 3.82946843 -3.42895561 5.12050295 -7 7 C-7 4 -7 4 -5.1875 1.8125 C-3 0 -3 0 0 0 Z " fill="#BD403A" transform="translate(233,227)"/>
<path d="M0 0 C4 0 4 0 6.25 2 C6.8275 2.66 7.405 3.32 8 4 C7.67 4.99 7.34 5.98 7 7 C5.83040013 6.02433888 4.66438823 5.044375 3.5 4.0625 C2.8503125 3.51722656 2.200625 2.97195312 1.53125 2.41015625 C1.0259375 1.94480469 0.520625 1.47945312 0 1 C0 0.67 0 0.34 0 0 Z " fill="#B83A32" transform="translate(64,225)"/>
<path d="M0 0 C1.98 0 3.96 0 6 0 C5.19152271 1.16945792 4.37810888 2.33550461 3.5625 3.5 C3.11003906 4.1496875 2.65757812 4.799375 2.19140625 5.46875 C1.79824219 5.9740625 1.40507812 6.479375 1 7 C0.67 7 0.34 7 0 7 C0 4.69 0 2.38 0 0 Z " fill="#BE3C36" transform="translate(250,146)"/>
<path d="M0 0 C0.66 0 1.32 0 2 0 C3.32 2.97 4.64 5.94 6 9 C5.01 8.67 4.02 8.34 3 8 C3 7.01 3 6.02 3 5 C2.34 5 1.68 5 1 5 C0.67 5.66 0.34 6.32 0 7 C0 4.69 0 2.38 0 0 Z " fill="#B7564F" transform="translate(259,75)"/>
<path d="M0 0 C0.66 0.66 1.32 1.32 2 2 C0.9375 3.9375 0.9375 3.9375 -1 6 C-4.6875 6.75 -4.6875 6.75 -8 7 C-5.42215154 4.35247996 -3.08351902 2.05567935 0 0 Z " fill="#BB4139" transform="translate(77,30)"/>
<path d="M0 0 C-1.0625 1.5 -1.0625 1.5 -3 3 C-6.6875 3.1875 -6.6875 3.1875 -10 3 C-10 2.34 -10 1.68 -10 1 C-6.78548731 -0.60725635 -3.56387464 -0.05748185 0 0 Z " fill="#BF423A" transform="translate(144,6)"/>
<path d="M0 0 C-2.97 2.475 -2.97 2.475 -6 5 C-6.66 3.68 -7.32 2.36 -8 1 C-4.93251126 -0.86240388 -3.40254489 -1.2151946 0 0 Z " fill="#BC3C35" transform="translate(259,171)"/>
<path d="M0 0 C0.66 0.33 1.32 0.66 2 1 C1.34 3.31 0.68 5.62 0 8 C0.66 8.33 1.32 8.66 2 9 C1.01 9.66 0.02 10.32 -1 11 C-2.0257259 6.58937864 -2.03684712 4.07369424 0 0 Z " fill="#BD4941" transform="translate(109,128)"/>
<path d="M0 0 C2.4375 0.75 2.4375 0.75 5 2 C5.75 3.8125 5.75 3.8125 6 6 C6.185625 6.9075 6.37125 7.815 6.5625 8.75 C6.706875 9.4925 6.85125 10.235 7 11 C4.04250209 7.53258866 1.92151848 4.13126473 0 0 Z " fill="#B93E36" transform="translate(32,127)"/>
<path d="M0 0 C0.66 0 1.32 0 2 0 C2 2.64 2 5.28 2 8 C1.01 8 0.02 8 -1 8 C-1.125 2.25 -1.125 2.25 0 0 Z " fill="#FBEFE9" transform="translate(251,102)"/>
<path d="M0 0 C0.33 0.66 0.66 1.32 1 2 C-0.66666667 3.66666667 -2.33333333 5.33333333 -4 7 C-4.66 6.67 -5.32 6.34 -6 6 C-6 6.66 -6 7.32 -6 8 C-6.99 7.67 -7.98 7.34 -9 7 C-6.03716687 4.61327331 -3.05729491 2.2646629 0 0 Z " fill="#B8423B" transform="translate(153,83)"/>
<path d="M0 0 C3.53372712 1.96318174 6.24479785 4.04070881 9 7 C7.68 7 6.36 7 5 7 C5 6.34 5 5.68 5 5 C4.01 5.33 3.02 5.66 2 6 C1.67 5.34 1.34 4.68 1 4 C1.33 3.34 1.66 2.68 2 2 C1.34 2 0.68 2 0 2 C0 1.34 0 0.68 0 0 Z " fill="#B73E35" transform="translate(224,32)"/>
<path d="M0 0 C4.23169259 0.37615045 6.8083482 1.17661571 10 4 C3.6 4.36923077 3.6 4.36923077 0.5625 2.5 C0.046875 2.005 -0.46875 1.51 -1 1 C-0.67 0.67 -0.34 0.34 0 0 Z " fill="#BA3F37" transform="translate(174,38)"/>
<path d="M0 0 C-0.33 0.99 -0.66 1.98 -1 3 C-3.97 3 -6.94 3 -10 3 C-6.1865669 0.45771127 -4.5252563 -0.11908569 0 0 Z " fill="#BD3128" transform="translate(133,8)"/>
<path d="M0 0 C0.66 0.33 1.32 0.66 2 1 C1.34 2.65 0.68 4.3 0 6 C-1.65 6 -3.3 6 -5 6 C-3.35 4.02 -1.7 2.04 0 0 Z " fill="#B93D36" transform="translate(210,145)"/>
<path d="M0 0 C3.53586014 3.17320782 5.58578031 5.16743695 6 10 C5.67 9.34 5.34 8.68 5 8 C4.34 8 3.68 8 3 8 C0 2.25 0 2.25 0 0 Z " fill="#B64038" transform="translate(30,131)"/>
<path d="M0 0 C1.32 0.33 2.64 0.66 4 1 C3.67 3.97 3.34 6.94 3 10 C2.67 10 2.34 10 2 10 C2 8.02 2 6.04 2 4 C1.34 4 0.68 4 0 4 C0 2.68 0 1.36 0 0 Z " fill="#F6D3CD" transform="translate(251,98)"/>
<path d="M0 0 C0.33 0.66 0.66 1.32 1 2 C0.34 2 -0.32 2 -1 2 C-1 2.66 -1 3.32 -1 4 C-3.3125 5.6875 -3.3125 5.6875 -6 7 C-6.99 6.67 -7.98 6.34 -9 6 C-6.03 4.02 -3.06 2.04 0 0 Z " fill="#FAE0DB" transform="translate(111,19)"/>
<path d="M0 0 C0.6875 1.6875 0.6875 1.6875 1 4 C-0.4375 6.75 -0.4375 6.75 -2 9 C-3.32 8.67 -4.64 8.34 -6 8 C-5.195625 7.236875 -4.39125 6.47375 -3.5625 5.6875 C-0.83200976 3.20569102 -0.83200976 3.20569102 0 0 Z " fill="#BB4D45" transform="translate(142,213)"/>
<path d="M0 0 C1.98 0.495 1.98 0.495 4 1 C2.515 3.475 2.515 3.475 1 6 C0.34 5.67 -0.32 5.34 -1 5 C-0.67 3.35 -0.34 1.7 0 0 Z " fill="#C03E37" transform="translate(165,188)"/>
<path d="M0 0 C1.875 0.25 1.875 0.25 4 1 C5.25 3.0625 5.25 3.0625 6 5 C4.68 5.33 3.36 5.66 2 6 C2 4.35 2 2.7 2 1 C1.34 0.67 0.68 0.34 0 0 Z " fill="#BE3D36" transform="translate(42,150)"/>
<path d="M0 0 C0.66 0 1.32 0 2 0 C2 0.66 2 1.32 2 2 C2.99 2 3.98 2 5 2 C5 3.32 5 4.64 5 6 C5.99 6.33 6.98 6.66 8 7 C7.01 7.33 6.02 7.66 5 8 C4.16382818 6.8562364 3.33113541 5.70992861 2.5 4.5625 C2.0359375 3.92441406 1.571875 3.28632813 1.09375 2.62890625 C0 1 0 1 0 0 Z " fill="#BC4139" transform="translate(45,147)"/>
<path d="M0 0 C1.85776765 3.13498292 2.20140476 5.37471432 2 9 C1.34 9 0.68 9 0 9 C-1.125 2.25 -1.125 2.25 0 0 Z " fill="#FDF1ED" transform="translate(48,104)"/>
<path d="M0 0 C-0.33 0.99 -0.66 1.98 -1 3 C-3.64 2.34 -6.28 1.68 -9 1 C-9 0.67 -9 0.34 -9 0 C-2.25 -1.125 -2.25 -1.125 0 0 Z " fill="#BF4940" transform="translate(183,13)"/>
<path d="M0 0 C0.33 0 0.66 0 1 0 C1 2.64 1 5.28 1 8 C0.01 8.33 -0.98 8.66 -2 9 C-1.34 6.03 -0.68 3.06 0 0 Z " fill="#BD4B43" transform="translate(209,202)"/>
<path d="M0 0 C1.89213369 2.38573379 3.02391783 4.07175348 4 7 C1 7 1 7 -1 6 C-0.67 4.02 -0.34 2.04 0 0 Z " fill="#BA403B" transform="translate(51,121)"/>
</svg>
