<?xml version="1.0" encoding="UTF-8"?>
<svg version="1.1" xmlns="http://www.w3.org/2000/svg" width="500" height="375">
<path d="M0 0 C165 0 330 0 500 0 C500 123.75 500 247.5 500 375 C335 375 170 375 0 375 C0 251.25 0 127.5 0 0 Z " fill="#FEFEFE" transform="translate(0,0)"/>
<path d="M0 0 C1.66956919 3.33913838 0.33069885 6.91205298 -0.30078125 10.47265625 C-0.52858276 11.80129196 -0.52858276 11.80129196 -0.76098633 13.1567688 C-1.27190684 16.12646233 -1.79223141 19.09443107 -2.3125 22.0625 C-2.67329623 24.14940457 -3.03355593 26.23640195 -3.39331055 28.32348633 C-5.45493364 40.25405563 -7.55727755 52.17751922 -9.65625 64.1015625 C-9.87758102 65.35986374 -10.09891205 66.61816498 -10.32695007 67.91459656 C-11.4085484 74.06179033 -12.49331584 80.20838517 -13.58520508 86.35375977 C-15.49480682 97.13729004 -17.37791807 107.91560165 -18.90852356 118.76054382 C-19.96034285 126.11491572 -21.2916484 133.41987339 -22.59662056 140.73248482 C-23.24434423 144.37353123 -23.88121185 148.01646326 -24.51806641 151.65942383 C-24.7774563 153.14158975 -25.03686618 154.62375217 -25.29629517 156.10591125 C-25.42759449 156.85624445 -25.55889381 157.60657764 -25.69417191 158.37964821 C-26.55508869 163.29798246 -27.41743121 168.21606699 -28.27955055 173.13419056 C-29.03214347 177.427957 -29.78419303 181.72181735 -30.53515625 186.01586914 C-31.27003751 190.21779293 -32.00632115 194.41946879 -32.74357224 198.6209774 C-33.02237008 200.2112916 -33.30065796 201.80169528 -33.57841873 203.39219093 C-33.96451591 205.6025992 -34.35240698 207.81268563 -34.74072266 210.02270508 C-34.96039703 211.2771492 -35.18007141 212.53159332 -35.40640259 213.8240509 C-35.86043747 216.25329275 -36.38584842 218.60986037 -37 221 C-70.49999535 221.03086863 -103.99999239 221.05105728 -137.5 221.0625 C-138.73524209 221.0629343 -139.97048419 221.06336861 -141.24315786 221.06381607 C-204.68452855 221.0855224 -268.12327664 221.06562969 -331.5625 220.5 C-332.23507717 220.49402628 -332.90765434 220.48805257 -333.60061264 220.48189783 C-349.73392325 220.33828927 -365.8670557 220.18018273 -382 220 C-378.81721757 216.112217 -375.85704924 212.86431911 -371.875 209.75 C-367.95566191 206.61873258 -364.18710446 203.40185569 -360.5 200 C-356.0301488 195.88621091 -351.40955107 192.02912703 -346.68359375 188.21484375 C-344.05291443 186.04367173 -341.52057576 183.79758643 -339 181.5 C-335.60401318 178.40444804 -332.13828469 175.44848793 -328.5625 172.5625 C-323.788597 168.70174863 -319.26611572 164.62562925 -314.75 160.46875 C-311.18815771 157.27118704 -307.47434167 154.28611657 -303.75 151.28125 C-300.91900422 148.93281032 -298.20616402 146.49090098 -295.5 144 C-291.05272888 139.90648909 -286.45282537 136.07557501 -281.75 132.28125 C-278.91900422 129.93281032 -276.20616402 127.49090098 -273.5 125 C-269.05272888 120.90648909 -264.45282537 117.07557501 -259.75 113.28125 C-256.91900422 110.93281032 -254.20616402 108.49090098 -251.5 106 C-247.0301488 101.88621091 -242.40955107 98.02912703 -237.68359375 94.21484375 C-235.05291443 92.04367173 -232.52057576 89.79758643 -230 87.5 C-225.70008209 83.58108748 -221.24080453 79.90829131 -216.71875 76.25 C-214.07852271 74.06498431 -211.5327028 71.80828609 -209 69.5 C-204.70008209 65.58108748 -200.24080453 61.90829131 -195.71875 58.25 C-192.22091849 55.35524289 -188.88214596 52.30410461 -185.52734375 49.24609375 C-182.05457486 46.15978445 -178.43648782 43.26716824 -174.8203125 40.3515625 C-170.80948764 37.00735673 -167.01408226 33.45229849 -163.21484375 29.87109375 C-161 28 -161 28 -159 28 C-159 27.34 -159 26.68 -159 26 C-157.51261765 24.64617851 -155.95569449 23.36860114 -154.375 22.125 C-149.08465895 17.9036916 -143.94481813 13.54236024 -138.86083984 9.07470703 C-138.30090332 8.58856934 -137.7409668 8.10243164 -137.1640625 7.6015625 C-136.42857178 6.95695068 -136.42857178 6.95695068 -135.67822266 6.29931641 C-133.56439589 4.66274584 -131.29825636 3.36141886 -129 2 C-129.60127726 11.99739262 -130.88122569 21.83209622 -132.36328125 31.7265625 C-132.59928142 33.3247615 -132.83488337 34.92301936 -133.07011414 36.52133179 C-133.68768244 40.71014765 -134.31058808 44.8981522 -134.93469238 49.08599854 C-135.55540012 53.25737515 -136.17101826 57.42950202 -136.78710938 61.6015625 C-137.27063933 64.87242454 -137.7544398 68.14324653 -138.23828125 71.4140625 C-138.41584143 72.6148431 -138.41584143 72.6148431 -138.59698868 73.8398819 C-139.69916663 81.29000376 -140.80182239 88.73989509 -141.94728947 96.1835041 C-142.23951589 98.08345155 -142.52924016 99.98378332 -142.81889343 101.88412476 C-143.16337 104.14028221 -143.51243059 106.39574724 -143.86726379 108.65029907 C-144.70690813 114.17468013 -145.17538233 119.41192737 -145 125 C-144.00033203 124.07380859 -144.00033203 124.07380859 -142.98046875 123.12890625 C-138.25092083 118.78301396 -133.50175849 114.5346075 -128.5 110.5 C-124.71539666 107.44651321 -121.07792463 104.29331699 -117.5 101 C-113.0301488 96.88621091 -108.40955107 93.02912703 -103.68359375 89.21484375 C-101.05291443 87.04367173 -98.52057576 84.79758643 -96 82.5 C-92.60401318 79.40444804 -89.13828469 76.44848793 -85.5625 73.5625 C-81.75912497 70.48663412 -78.09917348 67.31246834 -74.5 64 C-70.12695905 59.97902591 -65.61900842 56.19810481 -61 52.46484375 C-55.5510382 47.98789727 -50.25914772 43.3279378 -44.94384766 38.69384766 C-41.77957304 35.93653325 -38.60888105 33.18663502 -35.4375 30.4375 C-34.81721924 29.89971924 -34.19693848 29.36193848 -33.55786133 28.80786133 C-27.65620033 23.69504002 -21.7285688 18.61282394 -15.79541016 13.53662109 C-12.57027636 10.77635565 -9.34783045 8.01295402 -6.125 5.25 C-4.94011515 4.23436219 -3.75522038 3.21873595 -2.5703125 2.203125 C-1.72210938 1.47609375 -0.87390625 0.7490625 0 0 Z " fill="#E90001" transform="translate(439,70)"/>
<path d="M0 0 C-0.60127726 9.99739262 -1.88122569 19.83209622 -3.36328125 29.7265625 C-3.59928142 31.3247615 -3.83488337 32.92301936 -4.07011414 34.52133179 C-4.68768244 38.71014765 -5.31058808 42.8981522 -5.93469238 47.08599854 C-6.55540012 51.25737512 -7.17103597 55.42949943 -7.78710938 59.6015625 C-9.58370706 71.75795434 -11.38377523 83.91380994 -13.21240234 96.06542969 C-13.39643112 97.2933725 -13.5804599 98.52131531 -13.77006531 99.78646851 C-14.10442391 102.01613079 -14.44067533 104.24551057 -14.77937317 106.47451782 C-15.60199888 111.96905788 -16.26810415 117.42429609 -16.65586853 122.96803284 C-17.2069791 126.22213391 -18.83506086 127.57942449 -21.375 129.5625 C-22.28507813 130.30113281 -23.19515625 131.03976563 -24.1328125 131.80078125 C-25.07898438 132.52652344 -26.02515625 133.25226563 -27 134 C-28.75432114 135.41131208 -30.50429049 136.82804967 -32.25 138.25 C-33.61318359 139.35214844 -33.61318359 139.35214844 -35.00390625 140.4765625 C-39.75414477 144.47741528 -44.24903948 148.74408769 -48.77734375 152.9921875 C-51.81794331 155.8422557 -54.92348424 158.60488811 -58.078125 161.328125 C-60.41105074 163.35758073 -62.70511245 165.427647 -65 167.5 C-70.33562637 172.31014801 -75.71586881 177.05980237 -81.1875 181.71484375 C-86.94263412 186.61573148 -92.64933846 191.54154149 -98.1875 196.6875 C-102.78272807 200.94529477 -107.51579949 204.9475051 -112.4296875 208.83203125 C-115.44630365 211.37644153 -118.20948064 214.20948064 -121 217 C-84.04 217.33 -47.08 217.66 -9 218 C-9 218.33 -9 218.66 -9 219 C-25.66665743 219.03165918 -42.3333163 219.05133243 -59 219.0625 C-60.26819077 219.06335602 -61.53638153 219.06421204 -62.84300232 219.06509399 C-107.31404463 219.0915002 -151.78059341 218.87203294 -196.25 218.5 C-196.96542465 218.49402628 -197.6808493 218.48805257 -198.41795349 218.48189783 C-216.61204584 218.32981142 -234.80606235 218.16963677 -253 218 C-249.81721757 214.112217 -246.85704924 210.86431911 -242.875 207.75 C-238.95566191 204.61873258 -235.18710446 201.40185569 -231.5 198 C-227.0301488 193.88621091 -222.40955107 190.02912703 -217.68359375 186.21484375 C-215.05291443 184.04367173 -212.52057576 181.79758643 -210 179.5 C-206.60401318 176.40444804 -203.13828469 173.44848793 -199.5625 170.5625 C-194.788597 166.70174863 -190.26611572 162.62562925 -185.75 158.46875 C-182.18815771 155.27118704 -178.47434167 152.28611657 -174.75 149.28125 C-171.91900422 146.93281032 -169.20616402 144.49090098 -166.5 142 C-162.05272888 137.90648909 -157.45282537 134.07557501 -152.75 130.28125 C-149.91900422 127.93281032 -147.20616402 125.49090098 -144.5 123 C-140.05272888 118.90648909 -135.45282537 115.07557501 -130.75 111.28125 C-127.91900422 108.93281032 -125.20616402 106.49090098 -122.5 104 C-118.0301488 99.88621091 -113.40955107 96.02912703 -108.68359375 92.21484375 C-106.05291443 90.04367173 -103.52057576 87.79758643 -101 85.5 C-96.70008209 81.58108748 -92.24080453 77.90829131 -87.71875 74.25 C-85.07852271 72.06498431 -82.5327028 69.80828609 -80 67.5 C-75.70008209 63.58108748 -71.24080453 59.90829131 -66.71875 56.25 C-63.22091849 53.35524289 -59.88214596 50.30410461 -56.52734375 47.24609375 C-53.05457486 44.15978445 -49.43648782 41.26716824 -45.8203125 38.3515625 C-41.80948764 35.00735673 -38.01408226 31.45229849 -34.21484375 27.87109375 C-32 26 -32 26 -30 26 C-30 25.34 -30 24.68 -30 24 C-28.51261765 22.64617851 -26.95569449 21.36860114 -25.375 20.125 C-20.0711934 15.88745802 -14.90386563 11.51963462 -9.77294922 7.07470703 C-1.57735722 0 -1.57735722 0 0 0 Z " fill="#F9A509" transform="translate(310,72)"/>
<path d="M0 0 C3.15040946 0.78080432 6.0317 1.76423801 9.04296875 2.97265625 C13.35828308 4.67916692 17.67695363 6.36193625 22.02832031 7.97363281 C24.0736035 8.7340459 26.11294452 9.50911882 28.15234375 10.28515625 C30.672533 11.24017533 33.18562622 12.1228941 35.74609375 12.97265625 C48.04094305 17.30564279 58.93827831 24.77327728 69.16796875 32.78515625 C69.16796875 33.11515625 69.16796875 33.44515625 69.16796875 33.78515625 C46.88109545 36.37812489 25.30229392 34.20415181 3.28027344 30.72967529 C0.49801949 30.29598367 -2.28712864 29.8827889 -5.07251644 29.46978188 C-8.41953483 28.97197594 -11.76440877 28.46064229 -15.109375 27.94921875 C-16.34662827 27.76267731 -17.58388153 27.57613586 -18.85862732 27.38394165 C-19.99574661 27.20390594 -21.13286591 27.02387024 -22.30444336 26.83837891 C-23.30301865 26.6829361 -24.30159393 26.52749329 -25.33042908 26.36734009 C-27.83203125 25.78515625 -27.83203125 25.78515625 -30.83203125 23.78515625 C-24.8323239 18.28000178 -18.72573044 12.96765954 -12.37109375 7.875 C-10.15319318 6.04949722 -8.09626959 4.14083401 -6.01953125 2.16015625 C-2.83203125 -0.21484375 -2.83203125 -0.21484375 0 0 Z " fill="#051253" transform="translate(118.83203125,238.21484375)"/>
<path d="M0 0 C0.06302235 12.43964275 0.07054344 24.87848391 0.01245117 37.31817627 C0.00441036 39.05006465 -0.00265798 40.78195794 -0.00854492 42.51385498 C-0.07385634 59.94891466 -0.40380912 76.29859545 -6 93 C-6.71234758 95.65767067 -7.35924985 98.32375054 -8 101 C-14.03439575 97.98280213 -16.7119598 83.80522997 -18.82714844 77.73535156 C-21.66148218 68.70843519 -23.10652396 59.39245648 -24.52832031 50.05712891 C-24.96902272 47.20077508 -25.45316503 44.35681501 -25.9609375 41.51171875 C-26.24522839 39.90372298 -26.52911489 38.29565564 -26.8125 36.6875 C-26.93681396 35.98302734 -27.06112793 35.27855469 -27.18920898 34.55273438 C-28.495643 26.72764842 -28.495643 26.72764842 -28 23 C-25.98046875 20.54296875 -25.98046875 20.54296875 -23.1875 18.1875 C-22.18847656 17.33285156 -21.18945312 16.47820312 -20.16015625 15.59765625 C-19.10813184 14.73011775 -18.05474987 13.86422283 -17 13 C-16.00871094 12.17371094 -15.01742188 11.34742187 -13.99609375 10.49609375 C-11.34748782 8.30874164 -8.6814791 6.14685398 -6 4 C-5.08992188 3.25492187 -4.17984375 2.50984375 -3.2421875 1.7421875 C-1 0 -1 0 0 0 Z " fill="#031155" transform="translate(281,97)"/>
<path d="M0 0 C1.68957213 0.25100361 3.37968005 0.49842797 5.0703125 0.7421875 C12.54274483 1.83949856 19.98728809 3.09955743 27.43360901 4.35990906 C28.20188522 4.48992813 28.97016144 4.6199472 29.76171875 4.75390625 C30.51182724 4.88130692 31.26193573 5.00870758 32.03477478 5.13996887 C35.85928984 5.78043585 39.66819463 6.34301762 43.52734375 6.72265625 C58.65056313 8.21828804 72.11079994 13.43925706 86.125 19.125 C85.795 19.785 85.465 20.445 85.125 21.125 C42.885 20.795 0.645 20.465 -42.875 20.125 C-39.33802176 15.88062611 -36.7398109 12.98219529 -32.5625 9.6875 C-28.70054163 6.73717331 -28.70054163 6.73717331 -25.40039062 3.21484375 C-18.56969539 -4.78436306 -9.23265569 -1.53414805 0 0 Z " fill="#031153" transform="translate(99.875,269.875)"/>
<path d="M0 0 C-0.60127726 9.99739262 -1.88122569 19.83209622 -3.36328125 29.7265625 C-3.59928142 31.3247615 -3.83488337 32.92301936 -4.07011414 34.52133179 C-4.68768244 38.71014765 -5.31058808 42.8981522 -5.93469238 47.08599854 C-6.55540012 51.25737512 -7.17103597 55.42949943 -7.78710938 59.6015625 C-9.58370706 71.75795434 -11.38377523 83.91380994 -13.21240234 96.06542969 C-13.39643112 97.2933725 -13.5804599 98.52131531 -13.77006531 99.78646851 C-14.10442391 102.01613079 -14.44067533 104.24551057 -14.77937317 106.47451782 C-15.7020724 112.63747602 -16.44497979 118.7929288 -17 125 C-24.43854349 117.56145651 -24.29113667 99.37562615 -24.39819336 89.5324707 C-24.36148435 83.74365307 -24.23425504 77.95989977 -24.06109619 72.17388916 C-23.97378918 69.06738197 -23.91000658 65.96049709 -23.84503174 62.85345459 C-23.64971711 53.59947949 -23.43923326 44.34600951 -23.07382202 35.09701538 C-22.99947328 32.98503793 -22.95678957 30.8738345 -22.9152832 28.76098633 C-22.86930421 27.42134137 -22.82207945 26.08173841 -22.7734375 24.7421875 C-22.7429834 23.57155762 -22.7125293 22.40092773 -22.68115234 21.19482422 C-21.32810837 14.84861153 -16.00631472 11.63228171 -11 8 C-9.12105753 6.46314076 -7.24575516 4.92181487 -5.375 3.375 C-1.14624506 0 -1.14624506 0 0 0 Z " fill="#051354" transform="translate(310,72)"/>
<path d="M0 0 C15.88194978 5.84371325 30.50624829 17.91409498 41 31 C42.41074542 32.58861142 43.82656151 34.17275185 45.25 35.75 C48 38.86666667 48 38.86666667 48 40 C45.4368911 39.88335552 42.87484533 39.75674012 40.3125 39.625 C39.61060547 39.5940625 38.90871094 39.563125 38.18554688 39.53125 C26.43236139 38.90441344 16.03187571 36.69184031 5.125 32.25 C4.00109863 31.80479004 2.87719727 31.35958008 1.71923828 30.90087891 C-1.5255499 29.61277509 -4.76311245 28.30780198 -8 27 C-9.67132471 26.33455374 -11.34313622 25.67032763 -13.015625 25.0078125 C-16.34923501 23.68527602 -19.67697084 22.34895243 -23 21 C-20.23478935 17.31735964 -17.35705163 14.47972372 -13.75 11.625 C-9.05700319 7.86430323 -4.48942717 4.00060702 0 0 Z " fill="#041254" transform="translate(146,212)"/>
<path d="M0 0 C2.24711245 3.37066868 2.58963482 5.52703848 3.21875 9.50390625 C3.42886719 10.80263672 3.63898438 12.10136719 3.85546875 13.43945312 C4.07066644 14.81374671 4.28550797 16.1880961 4.5 17.5625 C4.92415295 20.23094181 5.35250003 22.89869982 5.78125 25.56640625 C6.08724121 27.48078491 6.08724121 27.48078491 6.39941406 29.43383789 C6.91669849 32.50537189 7.50032996 35.54607114 8.140625 38.59375 C10.60084874 50.55882001 8.41892772 63.00245934 7 75 C-4.67006379 64.36789861 -11.34014399 48.95929772 -17.0625 34.5625 C-17.34391846 33.87747406 -17.62533691 33.19244812 -17.9152832 32.48666382 C-18.71426221 30.52337 -19.47426712 28.54945526 -20.22265625 26.56640625 C-20.66359619 25.42115479 -21.10453613 24.27590332 -21.55883789 23.09594727 C-22 20 -22 20 -20.27050781 17.22998047 C-17.84227231 14.84508767 -15.35405158 12.6783917 -12.6875 10.5625 C-8.387009 7.11518952 -4.16483366 3.60952251 0 0 Z " fill="#051354" transform="translate(246,126)"/>
<path d="M0 0 C0.26216309 0.6705542 0.52432617 1.3411084 0.79443359 2.03198242 C1.98775574 5.08389986 3.18137496 8.13570102 4.375 11.1875 C4.7875 12.24259766 5.2 13.29769531 5.625 14.38476562 C6.02460938 15.40634766 6.42421875 16.42792969 6.8359375 17.48046875 C7.38580322 18.88655396 7.38580322 18.88655396 7.94677734 20.32104492 C8.62776012 22.05317845 9.33345844 23.77588525 10.06835938 25.48583984 C11.09033705 28.24378695 11.60628693 30.84272147 12.0703125 33.74609375 C12.24433594 34.83083984 12.41835937 35.91558594 12.59765625 37.03320312 C12.77167969 38.15662109 12.94570312 39.28003906 13.125 40.4375 C13.30675781 41.55705078 13.48851562 42.67660156 13.67578125 43.83007812 C14.48487521 48.9553538 15.0993496 53.79957899 15 59 C-0.07783254 52.44534892 -13.95843858 32.93803695 -20.2421875 18.05859375 C-20.49226562 17.37925781 -20.74234375 16.69992188 -21 16 C-20.29875 15.43152344 -19.5975 14.86304688 -18.875 14.27734375 C-13.66033032 10.03333949 -8.51508899 5.75915644 -3.55859375 1.21484375 C-2 0 -2 0 0 0 Z " fill="#031254" transform="translate(220,150)"/>
<path d="M0 0 C14.31396331 5.68022417 25.62397539 25.69107757 32.08007812 38.82543945 C32.41007812 39.81543945 32.74007812 40.80543945 33.08007812 41.82543945 C17.80306745 38.81912008 4.18766701 32.01504352 -8.73242188 23.45043945 C-9.6518457 22.84361328 -10.57126953 22.23678711 -11.51855469 21.61157227 C-16.3065832 18.32588642 -16.3065832 18.32588642 -17.91992188 16.82543945 C-17.91992188 13.82543945 -17.91992188 13.82543945 -15.94335938 11.73950195 C-15.069375 10.98411133 -14.19539062 10.2287207 -13.29492188 9.45043945 C-12.38226563 8.6615332 -11.46960938 7.87262695 -10.52929688 7.05981445 C-9.66820312 6.3224707 -8.80710938 5.58512695 -7.91992188 4.82543945 C-7.30632812 4.2530957 -6.69273437 3.68075195 -6.06054688 3.09106445 C-2.44895856 -0.22266091 -2.44895856 -0.22266091 0 0 Z " fill="#061352" transform="translate(170.919921875,192.174560546875)"/>
<path d="M0 0 C5.09296778 2.15907944 7.17426838 5.9941237 10.125 10.5 C10.69178467 11.36334961 11.25856934 12.22669922 11.8425293 13.11621094 C18.65297547 23.97851414 22.84794288 35.92698588 27 48 C26.01 48.495 26.01 48.495 25 49 C9.55055038 39.41896109 -3.78082536 29.53415204 -16 16 C-14.71175427 12.13526281 -12.87208652 11.06377127 -9.6875 8.5625 C-6.25758059 5.85611499 -3.02581739 3.15518725 0 0 Z " fill="#041253" transform="translate(192,172)"/>
<path d="M0 0 C2.64 0 5.28 0 8 0 C8 0.66 8 1.32 8 2 C8.99 1.34 9.98 0.68 11 0 C15.82698169 -0.5449818 17.89592369 -0.71304929 22 1.9375 C24.72090199 6.10388118 24.99889284 9.15859197 24 14 C22.18319356 18.44193778 19.99164379 21.30373947 16.0625 24.0625 C12.5385842 25.14124974 10.51621685 25.03888225 7 24 C6.34 23.34 5.68 22.68 5 22 C3.515 27.445 3.515 27.445 2 33 C-0.64 33 -3.28 33 -6 33 C-5.03007336 27.11981974 -4.01553414 21.24743657 -3 15.375 C-2.82210937 14.33859375 -2.64421875 13.3021875 -2.4609375 12.234375 C-2.28820312 11.23664063 -2.11546875 10.23890625 -1.9375 9.2109375 C-1.78152344 8.30649902 -1.62554687 7.40206055 -1.46484375 6.47021484 C-1.05373179 4.28553482 -0.56651559 2.14887383 0 0 Z " fill="#0C0C0C" transform="translate(171,328)"/>
<path d="M0 0 C3.66666667 0 7.33333333 0 11 0 C12.9490625 -0.12375 12.9490625 -0.12375 14.9375 -0.25 C18.13639685 -0.26176065 18.78254463 -0.16727336 21.4375 1.875 C24.26058823 5.7144 24.3182553 8.22617054 24 13 C22.15470927 18.12580758 19.47302354 20.93027796 15 24 C11.62549093 25.01235272 9.90901849 25.35882309 6.625 24.0625 C5.820625 23.5365625 5.820625 23.5365625 5 23 C3.87119943 26.31114834 2.78697325 29.58978257 2 33 C-0.64 33 -3.28 33 -6 33 C-5.33020896 25.67849106 -3.98329403 18.62089577 -2.4375 11.4375 C-2.20353516 10.33341797 -1.96957031 9.22933594 -1.72851562 8.09179688 C-1.15618938 5.39368745 -0.57993998 2.69648125 0 0 Z " fill="#0B0B0B" transform="translate(140,328)"/>
<path d="M0 0 C2.54168324 -0.01829031 5.00480662 0.09454632 7.53198242 0.35498047 C12.10112902 23.15626033 12.10112902 23.15626033 12.53198242 32.35498047 C9.89198242 32.35498047 7.25198242 32.35498047 4.53198242 32.35498047 C4.53198242 30.37498047 4.53198242 28.39498047 4.53198242 26.35498047 C-0.08801758 26.35498047 -4.70801758 26.35498047 -9.46801758 26.35498047 C-10.12801758 28.33498047 -10.78801758 30.31498047 -11.46801758 32.35498047 C-14.10801758 32.35498047 -16.74801758 32.35498047 -19.46801758 32.35498047 C-18.79534989 29.00182661 -17.52414163 26.35615201 -15.88598633 23.36279297 C-15.10578125 21.93386719 -15.10578125 21.93386719 -14.30981445 20.47607422 C-13.76389648 19.48736328 -13.21797852 18.49865234 -12.65551758 17.47998047 C-11.85404297 16.00851562 -11.85404297 16.00851562 -11.03637695 14.50732422 C-9.99656551 12.61187458 -8.94092976 10.72500017 -7.86791992 8.84814453 C-6.48356089 6.46391086 -6.48356089 6.46391086 -5.54077148 4.32275391 C-4.1517163 1.55439699 -3.08306512 0.44344413 0 0 Z " fill="#0A0A0A" transform="translate(304.468017578125,319.64501953125)"/>
<path d="M0 0 C4.5478125 -0.12375 4.5478125 -0.12375 9.1875 -0.25 C10.60712036 -0.30462402 10.60712036 -0.30462402 12.05541992 -0.36035156 C16.15681656 -0.41433449 18.44565338 -0.32834377 22.046875 1.8046875 C24.7883218 4.8860737 25.07061616 6.90426257 25 11 C22.80137506 15.39724987 20.573805 18.151015 16 20 C12.34019706 20.52725975 8.69165856 20.81250771 5 21 C4.34 24.3 3.68 27.6 3 31 C0.03 31 -2.94 31 -6 31 C-4.02 20.77 -2.04 10.54 0 0 Z " fill="#080808" transform="translate(33,320)"/>
<path d="M0 0 C2.31 0 4.62 0 7 0 C6.67 3.96 6.34 7.92 6 12 C7.32 11.01 8.64 10.02 10 9 C13.24757827 8.59405272 15.33249717 8.73651204 18.375 9.9375 C21.03872523 13.31838203 20.40746424 16.93126284 20 21 C18.47765363 32.52234637 18.47765363 32.52234637 17 34 C14.66702567 34.04092937 12.33294775 34.04241723 10 34 C11 25 11 25 12 16 C9.62694422 15.58219121 9.62694422 15.58219121 7 16 C4.23869526 19.70014836 3.26158378 23.33824791 2.3125 27.8125 C2.06113281 28.97394531 1.80976562 30.13539063 1.55078125 31.33203125 C1.36902344 32.21246094 1.18726562 33.09289062 1 34 C-1.64 34 -4.28 34 -7 34 C-6.33044761 30.12118736 -5.65478187 26.24349266 -4.97363281 22.36669922 C-4.6302822 20.40517661 -4.29166626 18.44282713 -3.953125 16.48046875 C-3.73398437 15.23652344 -3.51484375 13.99257813 -3.2890625 12.7109375 C-3.09006348 11.56931152 -2.89106445 10.42768555 -2.68603516 9.25146484 C-2.01248963 6.05919464 -1.09411712 3.07084916 0 0 Z " fill="#0C0C0C" transform="translate(66,318)"/>
<path d="M0 0 C2.91927604 1.3961755 4.72202996 2.72202996 7 5 C7.27450545 8.34896654 7.08628804 11.63476663 7 15 C1.06 15 -4.88 15 -11 15 C-10.34 16.32 -9.68 17.64 -9 19 C-3.78020872 19.1799928 0.07262981 18.97094808 5 17 C4.8125 19.875 4.8125 19.875 4 23 C-0.19675182 25.97834 -6.0581223 25.52186228 -11 25 C-15.11275909 23.45771534 -16.55780938 22.66328593 -19 19 C-19.46499572 14.27254347 -19.51223742 11.98653133 -17.3125 7.75 C-12.20396727 1.67498811 -7.99668217 -0.89022565 0 0 Z " fill="#0A0A0A" transform="translate(439,327)"/>
<path d="M0 0 C2.31154881 4.12058701 1.68324584 7.89332897 1.4375 12.5625 C-4.5025 12.5625 -10.4425 12.5625 -16.5625 12.5625 C-15.9025 13.8825 -15.2425 15.2025 -14.5625 16.5625 C-9.7291528 16.64583357 -5.32557437 16.51511487 -0.5625 15.5625 C-0.8125 17.9375 -0.8125 17.9375 -1.5625 20.5625 C-4.77997002 22.75997952 -7.6713695 22.8605159 -11.5 22.875 C-12.51964844 22.89175781 -13.53929687 22.90851563 -14.58984375 22.92578125 C-17.99544454 22.50959088 -19.82225692 21.59742834 -22.5625 19.5625 C-25.13971202 15.69668197 -24.78757568 13.6236972 -24.23046875 9.140625 C-23.13559214 4.91478544 -20.92103111 2.27455329 -17.5625 -0.4375 C-11.98448768 -3.4124399 -5.47874827 -3.07344415 0 0 Z " fill="#0A0A0A" transform="translate(268.5625,329.4375)"/>
<path d="M0 0 C2.375 0.9375 2.375 0.9375 4 3 C4.86166501 10.63189008 2.9122464 17.63557489 1 25 C-1.64 25 -4.28 25 -7 25 C-6.01 18.73 -5.02 12.46 -4 6 C-9.98538237 7.31297122 -9.98538237 7.31297122 -12 11 C-12.60421492 13.38082853 -13.1390323 15.77975094 -13.625 18.1875 C-13.88539063 19.45980469 -14.14578125 20.73210937 -14.4140625 22.04296875 C-14.60742188 23.01878906 -14.80078125 23.99460937 -15 25 C-17.64 25 -20.28 25 -23 25 C-22.36062125 21.18638791 -21.71242233 17.37432822 -21.0625 13.5625 C-20.78889648 11.92958008 -20.78889648 11.92958008 -20.50976562 10.26367188 C-20.33251953 9.22919922 -20.15527344 8.19472656 -19.97265625 7.12890625 C-19.72914429 5.69140015 -19.72914429 5.69140015 -19.48071289 4.22485352 C-19 2 -19 2 -18 1 C-15.66702567 0.95907063 -13.33294775 0.95758277 -11 1 C-10.67 1.66 -10.34 2.32 -10 3 C-9.195625 2.2575 -9.195625 2.2575 -8.375 1.5 C-5.31754465 -0.43102443 -3.561827 -0.44522837 0 0 Z " fill="#0F0F0F" transform="translate(236,327)"/>
<path d="M0 0 C2.19140625 1.63671875 2.19140625 1.63671875 4 4 C4.2421875 6.953125 4.2421875 6.953125 3.875 10.25 C3.68744141 11.96509766 3.68744141 11.96509766 3.49609375 13.71484375 C2.91098674 17.58945 2.10514546 21.24250544 1 25 C-1.64 25 -4.28 25 -7 25 C-6.855625 24.20335937 -6.71125 23.40671875 -6.5625 22.5859375 C-6.376875 21.52632813 -6.19125 20.46671875 -6 19.375 C-5.814375 18.33085937 -5.62875 17.28671875 -5.4375 16.2109375 C-5.01284203 13.09425135 -4.92454794 10.14069188 -5 7 C-8.93075644 7.57452746 -8.93075644 7.57452746 -12 10 C-12.62448329 12.549496 -13.15890349 15.04720094 -13.625 17.625 C-13.7590625 18.33140625 -13.893125 19.0378125 -14.03125 19.765625 C-14.36110025 21.50911918 -14.68146056 23.25440389 -15 25 C-17.64 25 -20.28 25 -23 25 C-21.68 17.08 -20.36 9.16 -19 1 C-16.36 1 -13.72 1 -11 1 C-11 1.66 -11 2.32 -11 3 C-10.29875 2.505 -9.5975 2.01 -8.875 1.5 C-5.52678113 -0.2468968 -3.7241837 -0.55466566 0 0 Z " fill="#0D0D0D" transform="translate(412,327)"/>
<path d="M0 0 C1.17046875 0.10183594 2.3409375 0.20367187 3.546875 0.30859375 C4.43890625 0.39238281 5.3309375 0.47617187 6.25 0.5625 C5.92 2.5425 5.59 4.5225 5.25 6.5625 C4.755 6.3975 4.26 6.2325 3.75 6.0625 C0.21555911 5.35561182 -3.14690701 5.50244845 -6.75 5.5625 C-6.75 6.2225 -6.75 6.8825 -6.75 7.5625 C-6.13511719 7.74425781 -5.52023437 7.92601562 -4.88671875 8.11328125 C-3.67435547 8.49033203 -3.67435547 8.49033203 -2.4375 8.875 C-1.63699219 9.11863281 -0.83648437 9.36226563 -0.01171875 9.61328125 C2.40872778 10.62911632 3.67559901 11.47007029 5.25 13.5625 C5.32766684 17.83417609 4.92013454 19.83652092 2 23 C-2.94292337 25.82798061 -9.27313497 25.00854642 -14.75 24.5625 C-15.74 24.2325 -16.73 23.9025 -17.75 23.5625 C-17.42 21.5825 -17.09 19.6025 -16.75 17.5625 C-16.18796875 17.72621094 -15.6259375 17.88992188 -15.046875 18.05859375 C-12.61940944 18.59114997 -10.48110319 18.66148681 -8 18.625 C-6.80117188 18.61146484 -6.80117188 18.61146484 -5.578125 18.59765625 C-4.97484375 18.58605469 -4.3715625 18.57445312 -3.75 18.5625 C-3.75 17.9025 -3.75 17.2425 -3.75 16.5625 C-4.37648438 16.38074219 -5.00296875 16.19898438 -5.6484375 16.01171875 C-6.46570313 15.76035156 -7.28296875 15.50898438 -8.125 15.25 C-8.93710937 15.00636719 -9.74921875 14.76273437 -10.5859375 14.51171875 C-12.75 13.5625 -12.75 13.5625 -14.75 10.5625 C-15.21857988 6.89195762 -15.26209995 5.2392035 -13 2.25 C-8.76473781 -0.92644664 -5.16082515 -0.46447426 0 0 Z " fill="#0C0C0C" transform="translate(465.75,327.4375)"/>
<path d="M0 0 C0.33209473 0.89195068 0.66418945 1.78390137 1.00634766 2.70288086 C2.25845528 6.05642046 3.5257453 9.40405936 4.79736328 12.75024414 C5.34244437 14.19076965 5.88356526 15.63280087 6.42041016 17.07641602 C9.47915275 25.29287075 12.57299229 32.99894093 18 40 C17.67 40.66 17.34 41.32 17 42 C15.68 40.35 14.36 38.7 13 37 C11.02 37.495 11.02 37.495 9 38 C9.144375 39.2065625 9.28875 40.413125 9.4375 41.65625 C9.62523902 43.27080556 9.81272554 44.88539049 10 46.5 C10.14308594 47.68722656 10.14308594 47.68722656 10.2890625 48.8984375 C10.87107882 53.97029404 11.09367085 58.89493859 11 64 C10.34 63.67 9.68 63.34 9 63 C8.69140625 61.19921875 8.69140625 61.19921875 8.5625 58.6875 C8.37743099 56.45813019 8.18954842 54.22899342 8 52 C7.94859863 51.33597168 7.89719727 50.67194336 7.84423828 49.98779297 C6.40918009 33.24290973 0.32058539 18.40291858 -6 3 C-2.25 0 -2.25 0 0 0 Z " fill="#EEA718" transform="translate(225,146)"/>
<path d="M0 0 C1.134375 0.020625 2.26875 0.04125 3.4375 0.0625 C2.86973344 7.7569759 1.50889916 15.15417222 -0.125 22.6875 C-0.35896484 23.78707031 -0.59292969 24.88664062 -0.83398438 26.01953125 C-1.40537794 28.70158267 -1.98162813 31.3824884 -2.5625 34.0625 C-5.2025 34.0625 -7.8425 34.0625 -10.5625 34.0625 C-9.93968547 30.43712108 -9.31383919 26.8122715 -8.6875 23.1875 C-8.51347656 22.17429687 -8.33945313 21.16109375 -8.16015625 20.1171875 C-7.307969 15.19343894 -6.43450133 10.27456213 -5.4921875 5.3671875 C-5.33733887 4.56007324 -5.18249023 3.75295898 -5.02294922 2.92138672 C-4.19127021 -0.43619758 -3.72402515 0.06533377 0 0 Z " fill="#121212" transform="translate(115.5625,317.9375)"/>
<path d="M0 0 C2.64 0 5.28 0 8 0 C6.89474956 7.96943737 5.49773772 15.85852642 3.9375 23.75 C3.7631543 24.64364258 3.58880859 25.53728516 3.40917969 26.45800781 C3.1582959 27.70855957 3.1582959 27.70855957 2.90234375 28.984375 C2.75273193 29.73428711 2.60312012 30.48419922 2.44897461 31.25683594 C2 33 2 33 1 34 C-1.33297433 34.04092937 -3.66705225 34.04241723 -6 34 C-5.43223344 26.3055241 -4.07139916 18.90832778 -2.4375 11.375 C-2.20353516 10.27542969 -1.96957031 9.17585938 -1.72851562 8.04296875 C-1.15712206 5.36091733 -0.58087187 2.6800116 0 0 Z " fill="#111111" transform="translate(365,318)"/>
<path d="M0 0 C-0.33 2.31 -0.66 4.62 -1 7 C-2.093125 7.0825 -3.18625 7.165 -4.3125 7.25 C-7.93185799 7.63286503 -7.93185799 7.63286503 -9.625 9.625 C-11.35177476 12.60761095 -11.98019285 15.38187071 -12.6875 18.75 C-12.93886719 19.92046875 -13.19023437 21.0909375 -13.44921875 22.296875 C-13.63097656 23.18890625 -13.81273437 24.0809375 -14 25 C-16.64 25 -19.28 25 -22 25 C-21.36062125 21.18638791 -20.71242233 17.37432822 -20.0625 13.5625 C-19.78889648 11.92958008 -19.78889648 11.92958008 -19.50976562 10.26367188 C-19.33251953 9.22919922 -19.15527344 8.19472656 -18.97265625 7.12890625 C-18.72914429 5.69140015 -18.72914429 5.69140015 -18.48071289 4.22485352 C-18 2 -18 2 -17 1 C-14.66702567 0.95907063 -12.33294775 0.95758277 -10 1 C-9.67 1.66 -9.34 2.32 -9 3 C-8.443125 2.505 -7.88625 2.01 -7.3125 1.5 C-4.61837017 -0.24754367 -3.14624993 -0.26218749 0 0 Z " fill="#111111" transform="translate(359,327)"/>
<path d="M0 0 C4.57232679 1.17687716 8.23885262 4.0854065 12.0625 6.75 C18.46954391 11.13130487 24.93205597 14.76217089 32 18 C32 18.33 32 18.66 32 19 C31.05125 19.28875 30.1025 19.5775 29.125 19.875 C25.94788422 20.76825109 25.94788422 20.76825109 24 23 C23.05640625 22.3709375 22.1128125 21.741875 21.140625 21.09375 C20.52453369 20.68326416 19.90844238 20.27277832 19.27368164 19.84985352 C17.91779985 18.94544159 16.562827 18.03966559 15.20874023 17.13256836 C11.9361266 14.94272827 8.65689226 12.77000633 5.33203125 10.66015625 C4.25308594 9.96792969 3.17414063 9.27570313 2.0625 8.5625 C1.08410156 7.94503906 0.10570312 7.32757813 -0.90234375 6.69140625 C-1.59457031 6.13324219 -2.28679687 5.57507813 -3 5 C-3 4.01 -3 3.02 -3 2 C-2.01 1.34 -1.02 0.68 0 0 Z " fill="#F1A916" transform="translate(151,208)"/>
<path d="M0 0 C2.64 0 5.28 0 8 0 C6.80039297 8.02715768 5.50253855 16.0237581 4 24 C1.36 24 -1.28 24 -4 24 C-3.4533512 15.81911794 -1.82876132 7.98214061 0 0 Z " fill="#101010" transform="translate(378,328)"/>
<path d="M0 0 C1.134375 0.020625 2.26875 0.04125 3.4375 0.0625 C2.95837184 8.30680867 1.45964499 16.06294527 -0.5625 24.0625 C-3.2025 24.0625 -5.8425 24.0625 -8.5625 24.0625 C-7.92312125 20.24888791 -7.27492233 16.43682822 -6.625 12.625 C-6.35139648 10.99208008 -6.35139648 10.99208008 -6.07226562 9.32617188 C-5.89501953 8.29169922 -5.71777344 7.25722656 -5.53515625 6.19140625 C-5.29164429 4.75390015 -5.29164429 4.75390015 -5.04321289 3.28735352 C-4.25258482 -0.3718611 -3.99226406 0.07003972 0 0 Z " fill="#101010" transform="translate(98.5625,327.9375)"/>
<path d="M0 0 C2.64 0 5.28 0 8 0 C7.35588614 5.55313696 6.49942196 11.01255636 5.4375 16.5 C5.29892578 17.22703125 5.16035156 17.9540625 5.01757812 18.703125 C4.68063335 20.46918037 4.34064317 22.23465426 4 24 C1.36 24 -1.28 24 -4 24 C-2.68 16.08 -1.36 8.16 0 0 Z " fill="#101010" transform="translate(202,328)"/>
<path d="M0 0 C4.08108902 3.62656015 6.73756439 7.98815347 9.625 12.5625 C10.59631843 14.08465822 11.56767123 15.60679451 12.5390625 17.12890625 C12.96396973 17.79994385 13.38887695 18.47098145 13.82666016 19.16235352 C14.8645105 20.78780078 15.93024631 22.39536946 17 24 C15.35 24.66 13.7 25.32 12 26 C12.33 27.98 12.66 29.96 13 32 C11.06713735 30.06713735 10.32538122 28.79265749 9.1953125 26.36328125 C7.09241561 22.04932178 4.5815431 18.14290794 1.875 14.1875 C1.43285156 13.53330078 0.99070313 12.87910156 0.53515625 12.20507812 C-0.63969037 10.46765389 -1.81956646 8.73363324 -3 7 C-3.66 6.01 -4.32 5.02 -5 4 C-3.35 2.68 -1.7 1.36 0 0 Z " fill="#F0A714" transform="translate(198,167)"/>
<path d="M0 0 C2.64 0 5.28 0 8 0 C7.52541842 3.43814934 7.04454738 6.8753901 6.5625 10.3125 C6.42779297 11.28896484 6.29308594 12.26542969 6.15429688 13.27148438 C6.02216797 14.20927734 5.89003906 15.14707031 5.75390625 16.11328125 C5.63345947 16.97735596 5.5130127 17.84143066 5.38891602 18.73168945 C5 21 5 21 4 24 C1.36 24 -1.28 24 -4 24 C-2.68 16.08 -1.36 8.16 0 0 Z " fill="#0F0F0F" transform="translate(326,328)"/>
<path d="M0 0 C2.31 0 4.62 0 7 0 C6.52087184 8.24430867 5.02214499 16.00044527 3 24 C0.36 24 -2.28 24 -5 24 C-4.35575667 20.74968273 -3.70932737 17.49980394 -3.0625 14.25 C-2.88009766 13.32960938 -2.69769531 12.40921875 -2.50976562 11.4609375 C-2.33251953 10.57148438 -2.15527344 9.68203125 -1.97265625 8.765625 C-1.81031494 7.94868164 -1.64797363 7.13173828 -1.48071289 6.29003906 C-1.03730797 4.17772917 -0.53920019 2.089663 0 0 Z " fill="#0E0E0E" transform="translate(125,328)"/>
<path d="M0 0 C1 1 1 1 1.3125 3.6875 C0.91893031 7.85933873 -0.24290016 9.8703191 -3 13 C-5.625 13.5 -5.625 13.5 -8 13 C-10 11 -10 11 -10.3125 8.1875 C-9.96477212 4.64067566 -9.10903783 2.83908938 -7 0 C-4.31633121 -1.3418344 -2.84719317 -0.73004953 0 0 Z " fill="#F0F0F0" transform="translate(155,334)"/>
<path d="M0 0 C4.91935902 4.11619836 9.52647956 8.40410362 14 13 C12.04783565 14.95216435 10.46800047 15.84826645 8 17 C3.66666667 12.66666667 -0.66666667 8.33333333 -5 4 C-3.35 2.68 -1.7 1.36 0 0 Z " fill="#EFA716" transform="translate(175,187)"/>
<path d="M0 0 C2.3125 0.8125 2.3125 0.8125 3.3125 1.8125 C3.296875 3.7734375 3.296875 3.7734375 3.0625 6.1875 C2.99546875 6.97898437 2.9284375 7.77046875 2.859375 8.5859375 C2.21536859 11.2079636 1.44794637 12.19286193 -0.6875 13.8125 C-3.3125 14.0625 -3.3125 14.0625 -5.6875 13.8125 C-7.25691198 12.24308802 -6.9324847 10.67115006 -7 8.5 C-6.95778048 5.19104482 -6.83643919 4.04418318 -5 1.1875 C-2.6875 -0.1875 -2.6875 -0.1875 0 0 Z " fill="#F5F5F5" transform="translate(183.6875,333.1875)"/>
<path d="M0 0 C2.50719458 2.32649587 4.32183601 4.82681521 6.1875 7.6875 C6.71730469 8.49574219 7.24710938 9.30398437 7.79296875 10.13671875 C8.39044922 11.05904297 8.39044922 11.05904297 9 12 C8.67 12.66 8.34 13.32 8 14 C6.68 12.35 5.36 10.7 4 9 C2.68 9.33 1.36 9.66 0 10 C0.144375 11.2065625 0.28875 12.413125 0.4375 13.65625 C0.62523902 15.27080556 0.81272554 16.88539049 1 18.5 C1.09539062 19.29148438 1.19078125 20.08296875 1.2890625 20.8984375 C1.87107882 25.97029404 2.09367085 30.89493859 2 36 C1.34 35.67 0.68 35.34 0 35 C-0.34375 32.953125 -0.34375 32.953125 -0.5 30.25 C-0.80879153 25.92130412 -1.33670632 21.71612985 -2.0625 17.4375 C-2.95617808 11.90331575 -3.22736609 6.59573211 -3 1 C-2.01 0.67 -1.02 0.34 0 0 Z " fill="#E5A61C" transform="translate(234,174)"/>
<path d="M0 0 C0.33 0 0.66 0 1 0 C1.64346326 12.76917088 0.38580275 23.64414117 -3.36621094 35.86474609 C-4.36086937 39.21577947 -5.1767673 42.60320339 -6 46 C-8 45 -8 45 -8.7734375 43.109375 C-9.38953722 40.69298391 -9.88143686 38.49406041 -10 36 C-8.125 32.9375 -8.125 32.9375 -6 31 C-6 31.66 -6 32.32 -6 33 C-5.34 33 -4.68 33 -4 33 C-3.86722656 32.19175781 -3.73445313 31.38351563 -3.59765625 30.55078125 C-3.42105469 29.48214844 -3.24445313 28.41351563 -3.0625 27.3125 C-2.88847656 26.25675781 -2.71445312 25.20101562 -2.53515625 24.11328125 C-2.21943669 22.27657696 -1.87556411 20.44369837 -1.46875 18.625 C-0.82007183 14.99240223 -0.63815915 11.36844414 -0.4375 7.6875 C-0.39431641 6.94693359 -0.35113281 6.20636719 -0.30664062 5.44335938 C-0.20129568 3.62908536 -0.10021684 1.8145645 0 0 Z " fill="#1A1B3C" transform="translate(279,152)"/>
<path d="M0 0 C6.15234375 -0.09765625 6.15234375 -0.09765625 8 0 C9 1 9 1 9.1875 3.4375 C9 6 9 6 7 8 C4.31160615 8.26991906 1.70858064 8.08737357 -1 8 C-0.67 5.36 -0.34 2.72 0 0 Z " fill="#F7F7F7" transform="translate(40,326)"/>
<path d="M0 0 C1.12148437 0.00322266 2.24296875 0.00644531 3.3984375 0.00976562 C4.5740625 0.01814453 5.7496875 0.02652344 6.9609375 0.03515625 C8.14429688 0.03966797 9.32765625 0.04417969 10.546875 0.04882812 C13.47661257 0.06064158 16.40625022 0.07711367 19.3359375 0.09765625 C19.3359375 0.42765625 19.3359375 0.75765625 19.3359375 1.09765625 C10.9209375 1.59265625 10.9209375 1.59265625 2.3359375 2.09765625 C2.0059375 2.75765625 1.6759375 3.41765625 1.3359375 4.09765625 C3.8109375 5.08765625 3.8109375 5.08765625 6.3359375 6.09765625 C3.32760654 7.60182173 0.98632172 6.70605362 -2.2890625 6.16015625 C-3.47757813 5.96550781 -4.66609375 5.77085937 -5.890625 5.5703125 C-6.80585938 5.41433594 -7.72109375 5.25835937 -8.6640625 5.09765625 C-8.2890625 3.16015625 -8.2890625 3.16015625 -7.6640625 1.09765625 C-5.00228029 -0.23323485 -2.97666854 -0.01503368 0 0 Z " fill="#E8A319" transform="translate(154.6640625,272.90234375)"/>
<path d="M0 0 C13.6332574 0.96355353 13.6332574 0.96355353 20 2 C15.27152318 6.88609272 15.27152318 6.88609272 12.125 7.16796875 C11.073125 7.17763672 11.073125 7.17763672 10 7.1875 C8.948125 7.20876953 8.948125 7.20876953 7.875 7.23046875 C6 7 6 7 4 5 C4.99 5 5.98 5 7 5 C7 4.01 7 3.02 7 2 C4.69 1.67 2.38 1.34 0 1 C0 0.67 0 0.34 0 0 Z " fill="#F4AA13" transform="translate(132,270)"/>
<path d="M0 0 C0.69685498 1.6210103 1.38222861 3.24696066 2.0625 4.875 C2.44535156 5.77992188 2.82820312 6.68484375 3.22265625 7.6171875 C4 10 4 10 3 12 C2.01 10.68 1.02 9.36 0 8 C-2.31 8.33 -4.62 8.66 -7 9 C-7.33 7.68 -7.66 6.36 -8 5 C-2.25 0 -2.25 0 0 0 Z " fill="#091859" transform="translate(220,150)"/>
<path d="M0 0 C9.41002278 -0.3690205 9.41002278 -0.3690205 14 2 C13.01 3.485 13.01 3.485 12 5 C14.31 5.33 16.62 5.66 19 6 C19 6.33 19 6.66 19 7 C11.52906777 7.29883729 4.36955011 6.15925507 -3 5 C-3 4.67 -3 4.34 -3 4 C-1.865625 3.855625 -0.73125 3.71125 0.4375 3.5625 C3.80777201 3.38828522 3.80777201 3.38828522 5 2 C3.35 1.67 1.7 1.34 0 1 C0 0.67 0 0.34 0 0 Z " fill="#F7AD14" transform="translate(109,267)"/>
<path d="M0 0 C0.33 0 0.66 0 1 0 C1.98248524 4.0527516 2.08159574 7.83861737 2 12 C-0.64 12 -3.28 12 -6 12 C-4.02 8.04 -2.04 4.08 0 0 Z " fill="#E7E7E7" transform="translate(305,328)"/>
<path d="M0 0 C2.64 0 5.28 0 8 0 C7.67 2.31 7.34 4.62 7 7 C4.36 7 1.72 7 -1 7 C-0.67 4.69 -0.34 2.38 0 0 Z " fill="#202020" transform="translate(380,318)"/>
<path d="M0 0 C1.134375 0.020625 2.26875 0.04125 3.4375 0.0625 C3.1075 2.3725 2.7775 4.6825 2.4375 7.0625 C-0.2025 7.0625 -2.8425 7.0625 -5.5625 7.0625 C-4.52245509 0.07934132 -4.52245509 0.07934132 0 0 Z " fill="#1F1F1F" transform="translate(332.5625,317.9375)"/>
<path d="M0 0 C1.134375 0.020625 2.26875 0.04125 3.4375 0.0625 C3.1075 2.3725 2.7775 4.6825 2.4375 7.0625 C-0.2025 7.0625 -2.8425 7.0625 -5.5625 7.0625 C-4.52245509 0.07934132 -4.52245509 0.07934132 0 0 Z " fill="#1F1F1F" transform="translate(208.5625,317.9375)"/>
<path d="M0 0 C1.134375 0.020625 2.26875 0.04125 3.4375 0.0625 C3.48004356 2.06204746 3.47830783 4.06291636 3.4375 6.0625 C2.4375 7.0625 2.4375 7.0625 -1.125 7.125 C-2.259375 7.104375 -3.39375 7.08375 -4.5625 7.0625 C-4.60504356 5.06295254 -4.60330783 3.06208364 -4.5625 1.0625 C-3.5625 0.0625 -3.5625 0.0625 0 0 Z " fill="#1E1E1E" transform="translate(130.5625,317.9375)"/>
<path d="M0 0 C1.134375 0.020625 2.26875 0.04125 3.4375 0.0625 C3.1075 2.3725 2.7775 4.6825 2.4375 7.0625 C0.1275 7.0625 -2.1825 7.0625 -4.5625 7.0625 C-4.60504356 5.06295254 -4.60330783 3.06208364 -4.5625 1.0625 C-3.5625 0.0625 -3.5625 0.0625 0 0 Z " fill="#181818" transform="translate(100.5625,317.9375)"/>
<path d="M0 0 C4.875 4.75 4.875 4.75 6 7 C3.33311371 6.85756403 0.66654233 6.71113422 -2 6.5625 C-2.74378906 6.52318359 -3.48757812 6.48386719 -4.25390625 6.44335938 C-9.20733918 6.16338273 -14.08313469 5.66489429 -19 5 C-19 4.67 -19 4.34 -19 4 C-13.72 4 -8.44 4 -3 4 C-2.67 3.34 -2.34 2.68 -2 2 C-1.34 2 -0.68 2 0 2 C0 1.34 0 0.68 0 0 Z " fill="#151840" transform="translate(188,245)"/>
<path d="M0 0 C2.72426311 2.35277269 3.8141763 4.62496331 5 8 C3.53984709 7.71758359 2.08190207 7.42373386 0.625 7.125 C-0.18710938 6.96257812 -0.99921875 6.80015625 -1.8359375 6.6328125 C-4 6 -4 6 -6 4 C-4.68 3.67 -3.36 3.34 -2 3 C-2 2.34 -2 1.68 -2 1 C-1.34 0.67 -0.68 0.34 0 0 Z " fill="#101546" transform="translate(199,226)"/>
<path d="M0 0 C2 1 2 1 2.8515625 3.06640625 C3.10679687 3.89011719 3.36203125 4.71382812 3.625 5.5625 C3.88539063 6.38878906 4.14578125 7.21507812 4.4140625 8.06640625 C4.60742188 8.70449219 4.80078125 9.34257812 5 10 C4.01 10.99 3.02 11.98 2 13 C2 12.34 2 11.68 2 11 C1.34 11 0.68 11 0 11 C-0.19491452 9.54263913 -0.38069358 8.08405407 -0.5625 6.625 C-0.66691406 5.81289062 -0.77132812 5.00078125 -0.87890625 4.1640625 C-1 2 -1 2 0 0 Z " fill="#FBA605" transform="translate(227,159)"/>
<path d="M0 0 C0.66 0 1.32 0 2 0 C5.48901845 7.18052459 6.54470737 13.0412201 6 21 C3.72002437 18.72002437 3.54789543 17.73947716 2.9296875 14.6484375 C2.75566406 13.79765625 2.58164062 12.946875 2.40234375 12.0703125 C2.22832031 11.18085938 2.05429687 10.29140625 1.875 9.375 C1.69324219 8.4778125 1.51148438 7.580625 1.32421875 6.65625 C0.8760054 4.4387734 0.4349076 2.22011786 0 0 Z " fill="#1C1C49" transform="translate(287,176)"/>
<path d="M0 0 C2.5625 0.1875 2.5625 0.1875 4.5625 2.1875 C4.5625 3.1775 4.5625 4.1675 4.5625 5.1875 C1.2625 5.1875 -2.0375 5.1875 -5.4375 5.1875 C-2.9575 0.2275 -2.9575 0.2275 0 0 Z " fill="#EAEAEA" transform="translate(434.4375,331.8125)"/>
<path d="M0 0 C0 4.62 0 9.24 0 14 C-0.33 14 -0.66 14 -1 14 C-1.33 12.02 -1.66 10.04 -2 8 C-2.99 8.66 -3.98 9.32 -5 10 C-5.75 7.25 -5.75 7.25 -6 4 C-2.94736842 0 -2.94736842 0 0 0 Z " fill="#EDA113" transform="translate(288,91)"/>
<path d="M0 0 C1.50416548 3.00833096 0.60839737 5.34961578 0.0625 8.625 C-0.13214844 9.81351563 -0.32679688 11.00203125 -0.52734375 12.2265625 C-0.68332031 13.14179687 -0.83929688 14.05703125 -1 15 C-1.33 15 -1.66 15 -2 15 C-2.33 12.69 -2.66 10.38 -3 8 C-4.98 8.33 -6.96 8.66 -9 9 C-6 6 -3 3 0 0 Z " fill="#D31416" transform="translate(439,70)"/>
<path d="M0 0 C0.33 1.32 0.66 2.64 1 4 C-2.3 4 -5.6 4 -9 4 C-6.30958923 -1.38082155 -5.46538656 -1.29443366 0 0 Z " fill="#F0F0F0" transform="translate(262,333)"/>
<path d="M0 0 C2.56687367 3.8503105 1.83288724 5.58569763 1 10 C-1.62187494 8.95125002 -2.79371361 8.35068687 -4.25 5.875 C-4.4975 5.25625 -4.745 4.6375 -5 4 C-3.35 2.68 -1.7 1.36 0 0 Z " fill="#0E164E" transform="translate(246,126)"/>
<path d="M0 0 C0 0.66 0 1.32 0 2 C0.31478446 3.33783393 0.64587656 4.67203709 1 6 C-2.67420866 5.69381595 -3.78135513 5.24228216 -6.3125 2.4375 C-6.869375 1.633125 -7.42625 0.82875 -8 0 C-4.71023192 -1.09658936 -3.28696233 -0.79953138 0 0 Z " fill="#F9A70B" transform="translate(166,217)"/>
<path d="M0 0 C0.66 0.33 1.32 0.66 2 1 C-0.97 4.3 -3.94 7.6 -7 11 C-8.32 10.67 -9.64 10.34 -11 10 C-5.555 5.05 -5.555 5.05 0 0 Z " fill="#D61112" transform="translate(355,142)"/>
<path d="M0 0 C0.66 0 1.32 0 2 0 C2.69685498 1.6210103 3.38222861 3.24696066 4.0625 4.875 C4.63677734 6.23238281 4.63677734 6.23238281 5.22265625 7.6171875 C6 10 6 10 5 12 C0 6.375 0 6.375 0 3 C-0.66 2.67 -1.32 2.34 -2 2 C-1.34 1.34 -0.68 0.68 0 0 Z " fill="#191A41" transform="translate(218,150)"/>
<path d="M0 0 C0.33 2.97 0.66 5.94 1 9 C0.01 8.01 -0.98 7.02 -2 6 C-2.99 5.67 -3.98 5.34 -5 5 C-5.33 5.99 -5.66 6.98 -6 8 C-5.65442041 4.8033888 -5.42865983 3.38847297 -3 1.1875 C-1 0 -1 0 0 0 Z " fill="#ECA416" transform="translate(253,121)"/>
<path d="M0 0 C3.47132095 1.40929697 4.88093274 2.90605083 6.75 6.125 C7.39195312 7.21167969 7.39195312 7.21167969 8.046875 8.3203125 C8.51867187 9.15175781 8.51867187 9.15175781 9 10 C6.5625 9.25 6.5625 9.25 4 8 C3.6278958 6.67696283 3.29369827 5.34262065 3 4 C1.0162233 2.71563266 1.0162233 2.71563266 -1 2 C-0.67 1.34 -0.34 0.68 0 0 Z " fill="#1C1F44" transform="translate(192,172)"/>
<path d="M0 0 C0.99 0.33 1.98 0.66 3 1 C2.01 1.495 2.01 1.495 1 2 C1.33 3.65 1.66 5.3 2 7 C-0.31 6.34 -2.62 5.68 -5 5 C-3.35 3.35 -1.7 1.7 0 0 Z " fill="#EEA81F" transform="translate(122,233)"/>
<path d="M0 0 C0.66 0.33 1.32 0.66 2 1 C1.2575 2.0828125 1.2575 2.0828125 0.5 3.1875 C-1.07919285 6.14848659 -1.28178312 7.71253029 -1 11 C-5 6.25 -5 6.25 -5 4 C-3.37373596 2.61767557 -1.7074998 1.28062485 0 0 Z " fill="#0D1246" transform="translate(204,162)"/>
<path d="M0 0 C0.33 0 0.66 0 1 0 C1.05399736 1.45792884 1.09279177 2.91642712 1.125 4.375 C1.14820313 5.18710938 1.17140625 5.99921875 1.1953125 6.8359375 C1 9 1 9 -1 11 C-2 10 -2 10 -2.1875 7.1875 C-2.00782439 4.13301456 -1.57664404 2.56204656 0 0 Z " fill="#111547" transform="translate(273,187)"/>
<path d="M0 0 C4.69023454 0.56606279 9.34500026 1.18537505 14 2 C14 2.33 14 2.66 14 3 C11.23735711 3.59732819 8.83967231 4 6 4 C6 3.34 6 2.68 6 2 C4.35 2 2.7 2 1 2 C0.67 1.34 0.34 0.68 0 0 Z " fill="#1A1A3B" transform="translate(116,273)"/>
<path d="M0 0 C2.31 0.66 4.62 1.32 7 2 C6.01 3.485 6.01 3.485 5 5 C4.67 5.66 4.34 6.32 4 7 C2 5.1875 2 5.1875 0 3 C0 2.01 0 1.02 0 0 Z " fill="#F5A50B" transform="translate(171,222)"/>
<path d="M0 0 C2.1640625 0.0234375 2.1640625 0.0234375 4.625 0.375 C5.85089844 0.54128906 5.85089844 0.54128906 7.1015625 0.7109375 C7.72804688 0.80632812 8.35453125 0.90171875 9 1 C6.04929881 2.96713413 4.46418389 3.65358161 1 4 C0.01 3.34 -0.98 2.68 -2 2 C-1.34 1.34 -0.68 0.68 0 0 Z " fill="#070E47" transform="translate(81,268)"/>
<path d="M0 0 C-0.99 0.495 -0.99 0.495 -2 1 C-2 1.66 -2 2.32 -2 3 C-3.65 3 -5.3 3 -7 3 C-7.33 2.01 -7.66 1.02 -8 0 C-5.13822943 -1.43088528 -3.06624227 -0.59991697 0 0 Z " fill="#FCA602" transform="translate(154,245)"/>
<path d="M0 0 C1.65 0 3.3 0 5 0 C5 0.66 5 1.32 5 2 C5.66 2.66 6.32 3.32 7 4 C6.67 4.99 6.34 5.98 6 7 C4.02 4.69 2.04 2.38 0 0 Z " fill="#0D1148" transform="translate(225,200)"/>
<path d="M0 0 C0.99 0 1.98 0 3 0 C3 2.31 3 4.62 3 7 C1.68 5.68 0.36 4.36 -1 3 C-0.67 2.01 -0.34 1.02 0 0 Z " fill="#090E44" transform="translate(250,194)"/>
<path d="M0 0 C2.475 0.495 2.475 0.495 5 1 C5.33 3.64 5.66 6.28 6 9 C3.03134491 6.45543849 1.6380249 3.51005335 0 0 Z " fill="#0F1345" transform="translate(207,179)"/>
<path d="M0 0 C1.98 0.99 1.98 0.99 4 2 C4 3.65 4 5.3 4 7 C3.67 6.34 3.34 5.68 3 5 C2.01 5 1.02 5 0 5 C0 3.35 0 1.7 0 0 Z " fill="#FBA402" transform="translate(249,126)"/>
<path d="M0 0 C0.66 0.99 1.32 1.98 2 3 C1.54625 3.433125 1.0925 3.86625 0.625 4.3125 C-1.20024334 6.10798342 -1.20024334 6.10798342 -3 9 C-3.36923077 3.46153846 -3.36923077 3.46153846 -1.5 1.125 C-1.005 0.75375 -0.51 0.3825 0 0 Z " fill="#131A4A" transform="translate(256,117)"/>
<path d="M0 0 C0 1.98 0 3.96 0 6 C-2.475 5.01 -2.475 5.01 -5 4 C-1.125 0 -1.125 0 0 0 Z " fill="#1A1E51" transform="translate(310,72)"/>
</svg>
