<svg xmlns="http://www.w3.org/2000/svg" id="_레이어_1" version="1.1" viewBox="0 0 765.625 273.5431339"><defs><style>.st1{fill-rule:evenodd;fill:#ff9f00}</style></defs><path d="M0 261.699v11.844h527.54l8.332-11.844zm606.777-11.607s36.584-54.65 39.886-60.034c4.018-6.614 4.2-17.123.573-22.763-1.842-2.96-56.389-89.222-56.389-89.222-4.905-9.325-3.684-15.69-.41-20.234 5.383-7.94 14.86-22.01 14.86-22.01s66.239 103.901 68.988 108.52c7.11 11.855 5.125 23.48-.716 33.406-4.915 8.4-47.818 72.338-47.818 72.338h-18.964" class="st1"/><path d="M594.99 256s42.339-61.99 45.488-67.125c3.694-6.262 3.293-15.1 0-20.435-1.756-2.816-60.55-95.358-60.55-95.358s-10.431 15.748-13.724 20.606c-3.293 4.84-5.23 10.862.4 20.559l43.876 69.273c3.436 5.412 3.274 15.376-.553 21.647-3.15 5.058-46.567 68.376-46.567 68.376h125.299c12.742 0 19.728-4.934 25.865-13.792 5.345-7.52 25.942-37.48 29.11-42.186 3.122-4.686 9.402-7.826 12.198-7.826h9.793l-19.098-29.063H716.05c-5.822 0-12.866 5.163-16.569 10.642-2.882 4.314-23.727 35.543-27.488 40.564-2.138 2.834-3.951 3.464-5.65 3.474h-3.961c1.24-2.51 36.26-53.449 43.14-64.664 8.304-13.8 10.213-32.04.316-49.535C702.202 114.819 629.445 0 629.445 0s-9.688 13.944-13.725 19.929c-3.274 4.867-4.285 11.243.43 20.568 0 0 61.084 97.162 64.005 101.61 7.091 11.071 6.203 25.865 0 35.973-5.078 8.294-47.274 72.012-47.274 72.012h33.434c12.093 0 15.08-4.485 18.42-8.217s21.523-31.306 23.595-34.227c2.1-2.863 7.397-11.004 14.373-11.004h21.953v.63a20.9 20.9 0 0 0-12.628 8.36c-3.34 4.525-25.416 37.205-28.06 41.013-3.34 4.8-7.178 9.353-16.78 9.353z" class="st1"/><path d="M313.935 233.428h11.845v-53.974h-11.835zm-8.36 0v-9.869H277.98v-44.105H266.08v53.974h39.514m-182.308-15.662 25.16.01 6.976 15.652h12.943l-26.42-53.974H129.71l-26.42 53.974h13.02l6.967-15.662zm12.542-28.996 8.561 19.499-17.065.038zm80.497.553h18.593c4.352 0 7.11 4.19 7.11 7.95 0 3.761-2.758 7.827-7.11 7.827h-14.555l23.574 28.328h14.04l-16.722-20.13h.029a17.03 17.03 0 0 0 11.806-16.358c0-9.306-7.187-17.486-17.657-17.486h-30.771v53.974h11.654v-44.105m-40 44.105h11.853v-53.974h-11.854zm301.068-21.885h15.166c3.484 0 5.823 2.004 5.823 5.879 0 3.865-2.339 5.889-5.823 5.889h-32.642v10.126h31.497c12.226 0 18.249-8.065 18.249-16.244 0-8.19-6.013-16.187-18.24-16.187-5.249 0-15.27.028-15.27.028-3.38 0-5.66-1.956-5.66-5.707 0-3.77 2.29-5.727 5.66-5.727h32.708v-10.136h-31.468c-12.102 0-18.058 7.139-18.058 16.082 0 8.934 5.956 15.997 18.058 15.997m-29.454 21.885v-9.869h-31.61v-13.82h27.544v-9.812h-27.545v-10.604l31.611.01v-9.879h-43.503v53.974zm-95.788-44.105h19.633c4.81 0 7.884 4.39 7.884 8.457v35.648h11.826v-37.156c0-9.192-6.548-16.818-17.037-16.818h-15.529l-6.777 8.991v-8.99h-11.835v53.973h11.835zM18.058 144.025h15.176c3.474 0 5.822 2.005 5.822 5.87s-2.348 5.88-5.822 5.88H.582v10.136H32.08c12.217 0 18.24-8.065 18.24-16.254s-6.014-16.178-18.23-16.178l-15.272.019c-3.388 0-5.67-1.947-5.67-5.708s2.292-5.717 5.68-5.717h32.69v-10.146H18.057C5.956 111.927 0 119.067 0 128.01c0 8.933 5.956 16.006 18.058 16.006m162.131 21.866h24.1v-35.21h-11.845v24.797h-13.868c-10.021 0-16.731-5.784-16.731-16.846 0-11.12 6.71-16.836 16.731-16.836h25.713v-9.86h-24.1c-20.31 0-30.332 14.575-30.332 27.04s10.022 26.915 30.332 26.915m-117.74.02h11.835v-53.975H62.45zm38.33-44.115h19.624c4.82 0 7.884 4.371 7.884 8.456v35.649h11.825v-37.157c0-9.191-6.547-16.808-17.037-16.808h-15.538l-6.757 8.991v-8.99H88.944v53.964h11.836zm314.612 0h18.593c4.352 0 7.11 4.19 7.11 7.96 0 3.76-2.758 7.826-7.11 7.826h-14.546l23.575 28.319h14.03l-16.712-20.12h.019a17.04 17.04 0 0 0 11.806-16.369c0-9.306-7.177-17.476-17.657-17.476h-30.77v53.965h11.662v-44.096m93.44 44.086v-9.86h-31.601v-13.81h27.535v-9.83h-27.535v-10.595l31.601.01v-9.87h-43.494v53.965h43.504m-278.296-15.663 25.15.01 6.986 15.653h12.932l-26.419-53.965h-12.217l-26.438 53.965h13.038l6.968-15.653zm12.54-28.996 8.562 19.509-17.065.029zm50.462 18.46v-.03l6.767 8.991h12.103c10.174 0 17.351-8.485 17.351-18.258 0-9.83-7.177-18.469-17.351-18.469h-30.772v53.965h11.902zm0-17.906h18.364c4.342 0 7.12 4.533 7.12 8.609 0 4.066-2.778 8.466-7.12 8.466h-18.373v-17.085zm71.994 46.357c16.204 0 29.339-13.137 29.338-29.34 0-16.204-13.135-29.338-29.338-29.339-16.183.005-29.297 13.128-29.292 29.31v.058c-.005 16.183 13.11 29.306 29.292 29.311h.01zm0-47.78c10.184.011 18.431 8.276 18.42 18.46s-8.274 18.43-18.458 18.42-18.432-8.275-18.421-18.459 8.275-18.43 18.459-18.42" style="fill:#fff;fill-rule:evenodd"/></svg>